<?xml version="1.0" encoding="UTF-8"?>
<svg version="1.1" xmlns="http://www.w3.org/2000/svg" width="2560" height="528">
<path d="M0 0 C5.31867067 3.30758022 8.19897685 6.69429813 10.8515625 12.33203125 C11.19087296 13.03268204 11.53018341 13.73333282 11.879776 14.45521545 C15.90852853 22.89618715 19.44266896 31.54522739 22.97265625 40.203125 C23.71029659 41.9989613 24.44859304 43.79452823 25.1875 45.58984375 C26.71589717 49.30479896 28.24151996 53.02087475 29.76513672 56.73779297 C32.98141856 64.57785556 36.23227238 72.40354469 39.48226929 80.22967529 C41.24881391 84.48451791 43.01298536 88.74034422 44.77734375 92.99609375 C45.12760117 93.84081238 45.47785858 94.68553101 45.83872986 95.55584717 C47.98445674 100.73078297 50.12946108 105.90601774 52.27398682 111.08145142 C59.34624611 128.14902949 66.42452737 145.21399146 73.53515625 162.265625 C81.00827724 180.18653223 88.44516049 198.12238442 95.87792969 216.06005859 C98.01558438 221.21871132 100.15412888 226.37699481 102.29296875 231.53515625 C102.64319092 232.37977417 102.99341309 233.22439209 103.35424805 234.09460449 C104.41453551 236.65161766 105.47484205 239.20862292 106.53515625 241.765625 C110.44891468 251.20385426 114.36263955 260.64209683 118.27394104 270.0813446 C120.06913079 274.41369398 121.86458475 278.74593383 123.66015625 283.078125 C124.0130069 283.92948029 124.36585754 284.78083557 124.72940063 285.6579895 C129.09162207 296.18190654 133.46357073 306.70168537 137.85107422 317.21508789 C139.08573601 320.17415131 140.31779402 323.13427595 141.54736328 326.09545898 C142.15129311 327.54934718 142.75529685 329.00320468 143.359375 330.45703125 C143.80570282 331.53122566 143.80570282 331.53122566 144.26104736 332.62712097 C146.1826483 337.24284309 148.12961341 341.84716216 150.09126282 346.44599915 C151.42890252 349.58755744 152.7549596 352.73393064 154.07925415 355.88113403 C154.70974584 357.37144385 155.34552195 358.85953056 155.98690796 360.34518433 C156.87084715 362.39389984 157.73609858 364.44960516 158.59765625 366.5078125 C159.09394531 367.6716748 159.59023438 368.83553711 160.1015625 370.03466797 C161.13333648 373.60540459 161.07954925 375.71849373 160.03515625 379.265625 C157.22393007 380.67123809 154.8656384 380.41625438 151.72119141 380.44262695 C151.0738353 380.44919815 150.42647919 380.45576935 149.75950623 380.46253967 C147.61440925 380.4822717 145.46938225 380.49393429 143.32421875 380.50390625 C142.59186382 380.50798178 141.8595089 380.5120573 141.1049614 380.51625633 C137.22948234 380.53711563 133.35403868 380.55141851 129.47851562 380.56079102 C125.47449443 380.57186167 121.47102805 380.60626873 117.46720314 380.64596272 C114.38911907 380.67209798 111.3111679 380.68048 108.23298264 380.68407249 C106.75697452 380.6889457 105.28097263 380.7005807 103.80507278 380.71911049 C101.73890339 380.7434407 99.67417872 380.7425495 97.60791016 380.7355957 C96.43257721 380.74146194 95.25724426 380.74732819 94.04629517 380.75337219 C90.38208677 380.15984017 89.27435971 379.16984004 87.03515625 376.265625 C85.90599581 373.73636304 84.94237296 371.31117155 84.046875 368.703125 C83.78258194 367.96282547 83.51828888 367.22252594 83.24598694 366.45979309 C82.39409488 364.06540027 81.55831133 361.66572706 80.72265625 359.265625 C80.14262358 357.62683518 79.56156682 355.98840746 78.97949219 354.3503418 C77.31668039 349.66053277 75.67310685 344.96416565 74.03515625 340.265625 C73.61637207 339.06631348 73.19758789 337.86700195 72.76611328 336.63134766 C72.40243652 335.58897949 72.03875977 334.54661133 71.6640625 333.47265625 C71.33768799 332.53744141 71.01131348 331.60222656 70.67504883 330.63867188 C70.09633634 328.97350409 69.52172729 327.30690257 68.9519043 325.63867188 C67.96842375 322.18326254 67.96842375 322.18326254 66.03515625 319.265625 C64.01021003 319.16886086 61.98183083 319.14375514 59.95457458 319.14537048 C59.31260244 319.14451606 58.67063029 319.14366163 58.00920445 319.14278132 C55.84261571 319.14112479 53.67610318 319.14665067 51.50952148 319.15209961 C49.96259564 319.15238147 48.41566966 319.15222377 46.8687439 319.1516571 C42.65611593 319.15136908 38.44351619 319.15726651 34.2308948 319.16423106 C29.83329837 319.17046388 25.43570136 319.17106834 21.0381012 319.17225647 C12.70475112 319.17537 4.3714141 319.18358368 -3.96193022 319.19360596 C-13.44665629 319.20476643 -22.93138297 319.21027738 -32.41611397 319.21530139 C-51.93236464 319.22576627 -71.44860315 319.24336613 -90.96484375 319.265625 C-93.11057186 324.00236544 -95.22969225 328.70617509 -96.91601562 333.63012695 C-97.24315552 334.5775325 -97.57029541 335.52493805 -97.90734863 336.50105286 C-98.24600952 337.49199448 -98.58467041 338.4829361 -98.93359375 339.50390625 C-99.67662918 341.64403794 -100.42013245 343.78400725 -101.1640625 345.92382812 C-102.32102115 349.26431823 -103.47436212 352.60592146 -104.61962891 355.95043945 C-105.73478289 359.20111094 -106.86429925 362.44649754 -107.99609375 365.69140625 C-108.33475464 366.69246902 -108.67341553 367.6935318 -109.02233887 368.72492981 C-109.34947876 369.65657455 -109.67661865 370.5882193 -110.01367188 371.5480957 C-110.29472778 372.36478226 -110.57578369 373.18146881 -110.86535645 374.02290344 C-112.23348772 376.81360188 -113.47940144 378.38022165 -115.96484375 380.265625 C-118.96925354 380.76010132 -118.96925354 380.76010132 -122.52172852 380.75146484 C-123.17098297 380.75526154 -123.82023743 380.75905823 -124.48916626 380.76296997 C-126.62869045 380.7703612 -128.76684719 380.74901814 -130.90625 380.7265625 C-132.3955011 380.72417734 -133.88475525 380.72327291 -135.37400818 380.7237854 C-138.49196261 380.72066001 -141.60945636 380.70411412 -144.72729492 380.67724609 C-148.72450665 380.6432368 -152.72121311 380.63561849 -156.71855259 380.63713646 C-159.79234137 380.63659276 -162.86601963 380.62562622 -165.93977165 380.61113358 C-167.41376853 380.60476864 -168.88777792 380.60082739 -170.3617878 380.59934616 C-172.42052701 380.59501144 -174.47872958 380.57750863 -176.53735352 380.55615234 C-177.70887466 380.54852875 -178.88039581 380.54090515 -180.0874176 380.53305054 C-182.96484375 380.265625 -182.96484375 380.265625 -185.96484375 378.265625 C-185.79151931 369.74384018 -182.49440315 362.65777453 -179.13973999 354.98144531 C-177.68152785 351.64344798 -176.25078531 348.2938788 -174.81797791 344.94491577 C-174.05159831 343.15417291 -173.28388242 341.36400141 -172.51490784 339.57437134 C-168.12484097 329.34710635 -163.88826345 319.0574462 -159.65234375 308.765625 C-158.85204715 306.8243159 -158.05159041 304.88307281 -157.25097656 302.94189453 C-155.63235558 299.01701941 -154.01438854 295.09187579 -152.39697266 291.16650391 C-148.38319976 281.42653582 -144.36145155 271.68986003 -140.33984375 261.953125 C-139.94568268 260.99870514 -139.55152161 260.04428528 -139.14541626 259.0609436 C-130.42652813 237.9498814 -121.67685477 216.85162579 -112.9230957 195.75500488 C-110.4782793 189.8628771 -108.03380824 183.9706062 -105.58984375 178.078125 C-105.06846832 176.82109268 -105.06846832 176.82109268 -104.53656006 175.53866577 C-98.83317745 161.78626873 -93.14618939 148.02713863 -87.46484375 134.265625 C-79.707132 115.47467957 -71.92932477 96.69216296 -64.13726807 77.91543579 C-61.18966259 70.81098833 -58.24915939 63.70361207 -55.30987549 56.59571838 C-52.45666073 49.69815186 -49.59099806 42.80581837 -46.72088623 35.91526794 C-44.83403363 31.3788401 -42.97695308 26.83211237 -41.14453125 22.2734375 C-40.37642753 20.39578201 -39.60821279 18.51817193 -38.83984375 16.640625 C-38.38158203 15.46161621 -38.38158203 15.46161621 -37.9140625 14.25878906 C-35.03641884 7.31914405 -30.40936053 2.37772294 -23.77734375 -1.171875 C-15.77689599 -4.32026245 -7.65420528 -3.71649274 0 0 Z M-13.96484375 106.265625 C-23.93723196 130.81152311 -33.41618149 155.55287006 -42.96484375 180.265625 C-43.43134338 181.47289246 -43.89784302 182.68015991 -44.378479 183.92401123 C-48.66377669 195.01486791 -52.94662351 206.10666985 -57.22753906 217.19921875 C-57.66260773 218.32643341 -58.09767639 219.45364807 -58.54592896 220.61502075 C-59.40285565 222.83716241 -60.25873208 225.05970941 -61.11349487 227.28268433 C-63.10590502 232.46248959 -65.10699551 237.63829603 -67.14127827 242.80182934 C-67.86289533 244.63504026 -68.58088427 246.469678 -69.29881287 248.30433655 C-70.20249475 250.61295582 -71.11214702 252.91924915 -72.02845764 255.22288513 C-72.42890793 256.24962845 -72.82935822 257.27637177 -73.24194336 258.33422852 C-73.59969345 259.24076675 -73.95744354 260.14730499 -74.32603455 261.08131409 C-75.23908146 263.28406306 -75.23908146 263.28406306 -73.96484375 265.265625 C-33.37484375 265.265625 7.21515625 265.265625 49.03515625 265.265625 C46.77881563 257.57193088 46.77881563 257.57193088 44.11254883 250.09936523 C43.76337906 249.2097963 43.41420929 248.32022736 43.05445862 247.40370178 C42.68328415 246.46997238 42.31210968 245.53624298 41.9296875 244.57421875 C41.53357773 243.56801987 41.13746796 242.56182098 40.72935486 241.52513123 C39.4390796 238.24968686 38.14332242 234.97644014 36.84765625 231.703125 C35.94191859 229.4059447 35.03665082 227.10857908 34.13183594 224.81103516 C32.30162124 220.16402568 30.46988889 215.51761901 28.63720703 210.87158203 C25.32168164 202.46071675 22.03248912 194.03965603 18.74978638 185.61593628 C17.78605907 183.14294171 16.82170836 180.67019111 15.85717773 178.19750977 C13.2008678 171.38731721 10.5460345 164.57654935 7.89160156 157.765625 C6.07981086 153.11684777 4.26741348 148.46830739 2.45471191 143.81988525 C1.44813299 141.23803443 0.44230741 138.65589105 -0.56347656 136.07373047 C-2.07169318 132.20287044 -3.5869473 128.33481426 -5.10461426 124.46765137 C-5.9725693 122.24584904 -6.83004766 120.02019446 -7.68652344 117.79394531 C-8.224362 116.41201307 -8.7624357 115.03017232 -9.30078125 113.6484375 C-9.76790527 112.43816895 -10.2350293 111.22790039 -10.71630859 109.98095703 C-11.67501707 107.14978491 -11.67501707 107.14978491 -13.96484375 106.265625 Z " fill="#2D50FF" transform="translate(728.96484375,41.734375)"/>
<path d="M0 0 C0.94230469 0.43054688 1.88460938 0.86109375 2.85546875 1.3046875 C10.38219693 5.0627436 16.03112626 10.15812357 22 16 C24.18376725 13.81623275 23.30090522 8.00465749 23.34179688 4.90234375 C23.55557637 -0.55649077 23.55557637 -0.55649077 25.71313477 -2.70960999 C28.4165643 -4.2350512 30.07251634 -4.38555132 33.1640625 -4.40405273 C34.70586182 -4.42307899 34.70586182 -4.42307899 36.27880859 -4.44248962 C37.38305176 -4.43955399 38.48729492 -4.43661835 39.625 -4.43359375 C41.33357178 -4.44145653 41.33357178 -4.44145653 43.07666016 -4.44947815 C45.48404119 -4.4558994 47.89145359 -4.45456006 50.29882812 -4.44604492 C53.98624372 -4.43753176 57.67211234 -4.46630256 61.359375 -4.49804688 C63.6979162 -4.49965885 66.03646015 -4.49908143 68.375 -4.49609375 C69.47924316 -4.50732773 70.58348633 -4.51856171 71.72119141 -4.53013611 C72.74905762 -4.52075516 73.77692383 -4.51137421 74.8359375 -4.50170898 C75.73876465 -4.50154282 76.6415918 -4.50137665 77.57177734 -4.50120544 C81.00398808 -3.79276847 81.93218914 -2.85734604 84 0 C84.60533665 3.34357249 84.53046504 6.65763182 84.49447632 10.04740906 C84.49930515 11.08013799 84.50413398 12.11286692 84.50910914 13.17689067 C84.52041027 16.64902497 84.50303675 20.12042769 84.48583984 23.5925293 C84.48798512 26.07782186 84.49186194 28.56311344 84.49734497 31.04840088 C84.50605013 37.10830349 84.49613527 43.16791847 84.47764437 49.22777792 C84.45685545 56.29605984 84.45701748 63.3642948 84.45798953 70.43260155 C84.45899136 83.06033821 84.44066091 95.68797371 84.41162109 108.31567383 C84.38352307 120.54030198 84.36927624 132.76484104 84.37060547 144.98950195 C84.37072534 146.11603364 84.37072534 146.11603364 84.37084763 147.26532354 C84.37092834 148.01509931 84.37100905 148.76487509 84.3710922 149.53737134 C84.37247769 163.47876689 84.36064849 177.42012487 84.34278577 191.36150819 C84.33678553 196.27430328 84.33463042 201.1870914 84.33372116 206.09988976 C84.33220168 212.73928694 84.31937844 219.37860374 84.29938889 226.01797485 C84.29358964 228.44418077 84.29107774 230.87039731 84.29224396 233.29660988 C84.30236677 267.20462377 80.57634882 300.87140674 55.76953125 326.2890625 C26.42891972 355.00892766 -15.89240094 360.85810677 -55.125 361.25 C-56.40745605 361.27151123 -57.68991211 361.29302246 -59.01123047 361.31518555 C-60.83485107 361.32159058 -60.83485107 361.32159058 -62.6953125 361.328125 C-63.78859863 361.3374707 -64.88188477 361.34681641 -66.00830078 361.35644531 C-70.2973846 360.84542341 -72.83038211 359.327559 -75.67236328 356.10180664 C-81.08793021 348.08610779 -85.98561913 339.7801223 -90.875 331.4375 C-92.1716266 329.23164766 -93.46941449 327.02649189 -94.76882935 324.82228088 C-95.57084571 323.46116187 -96.37110122 322.09900342 -97.16940308 320.73570251 C-98.84682698 317.69320018 -98.84682698 317.69320018 -101 315 C-101.375 311.625 -101.375 311.625 -101 308 C-97.38840272 305.14119972 -94.59240864 304.62686983 -90.05834961 304.63110352 C-88.88199448 304.62422012 -87.70563934 304.61733673 -86.49363708 304.61024475 C-85.22601028 304.61640305 -83.95838348 304.62256134 -82.65234375 304.62890625 C-81.31733668 304.62219778 -79.98233788 304.61361265 -78.64735413 304.60325623 C-73.00604648 304.56346217 -67.36481352 304.56191272 -61.72338867 304.56420898 C-23.57189862 304.68854872 -23.57189862 304.68854872 8.7109375 286.34765625 C21.82501926 272.20175587 22.67077194 253.18537263 22 235 C21.41734375 235.56847656 20.8346875 236.13695312 20.234375 236.72265625 C2.78979063 253.15238273 -17.89480854 258.34591548 -41.32177734 258.02734375 C-59.63408754 257.46548531 -76.68614416 253.34609389 -93 245 C-94.06605469 244.45472656 -95.13210938 243.90945313 -96.23046875 243.34765625 C-117.50343292 231.65165395 -131.98538055 212.1076107 -139 189 C-139.85390229 185.7691293 -140.57882428 182.52341987 -141.25 179.25 C-141.40114258 178.51378418 -141.55228516 177.77756836 -141.70800781 177.01904297 C-144.81053182 160.41038452 -145.37290874 143.72717068 -145.3125 126.875 C-145.31100952 125.84462616 -145.30951904 124.81425232 -145.3079834 123.75265503 C-145.26791625 108.33353063 -144.87623472 93.19490701 -142 78 C-141.86609863 77.26023926 -141.73219727 76.52047852 -141.59423828 75.75830078 C-136.6932136 49.85118729 -122.48808396 24.89383013 -100.7109375 9.65234375 C-71.69131603 -9.95858822 -32.29046045 -14.96908763 0 0 Z M-66.38671875 60.01953125 C-81.6669471 78.77758398 -84.18764306 101.3552208 -84.18530273 124.68359375 C-84.18747673 127.09914114 -84.20565392 129.51422121 -84.22460938 131.9296875 C-84.3093993 154.738178 -81.43268911 176.49353225 -65.2578125 193.8984375 C-53.83648128 204.52936518 -40.00302445 208.35979928 -24.734375 208.21484375 C-10.07077036 207.37122633 1.10368516 201.76470008 11 191 C22.04981183 176.30206327 23.13235044 158.447986 23.625 140.6875 C23.65768982 139.52657333 23.65768982 139.52657333 23.69104004 138.3421936 C24.76485058 109.88419313 24.76485058 109.88419313 20 82 C19.72285156 80.96101563 19.44570312 79.92203125 19.16015625 78.8515625 C17.0170579 71.54847199 13.80740467 65.88139933 9 60 C8.21496094 59.02740234 8.21496094 59.02740234 7.4140625 58.03515625 C-0.77459399 48.90780012 -13.43453425 44.8185214 -25.328125 43.80078125 C-40.86751781 43.12616689 -55.74565225 48.51498919 -66.38671875 60.01953125 Z " fill="#2D50FF" transform="translate(1320,163)"/>
<path d="M0 0 C28.15073766 23.83263041 38.15846127 58.49672521 41.6484375 94.2421875 C41.79653934 97.15404746 41.83516297 100.06125384 41.8515625 102.9765625 C41.85726257 103.77700989 41.86296265 104.57745728 41.86883545 105.40216064 C41.87821221 107.0794546 41.88478995 108.75676636 41.88867188 110.43408203 C41.89846482 112.99934275 41.92959038 115.56382993 41.9609375 118.12890625 C41.96746082 119.76562029 41.97271392 121.40233999 41.9765625 123.0390625 C41.9889093 123.80265076 42.0012561 124.56623901 42.01397705 125.35296631 C42.00139541 128.3490006 41.90079628 130.74115089 40.54020977 133.44247818 C37.78129181 136.06713361 35.79024145 135.74972948 32.02363586 135.76116943 C31.34728645 135.76867069 30.67093704 135.77617194 29.97409219 135.7839005 C27.70287752 135.8042354 25.43265568 135.79606437 23.16137695 135.78808594 C21.53532927 135.79681787 19.90929019 135.80730232 18.28326416 135.81941223 C13.86409326 135.84733968 9.44520179 135.85067544 5.02595544 135.84969234 C0.409426 135.85281568 -4.20697651 135.87842173 -8.82344055 135.90167236 C-17.56754126 135.94228047 -26.3115673 135.96258435 -35.05574781 135.97564626 C-45.00974588 135.99150005 -54.9636166 136.02990878 -64.91754091 136.07023954 C-85.39550613 136.15270429 -105.87346545 136.20675528 -126.3515625 136.2421875 C-126.36175037 137.67177867 -126.36898934 139.10139103 -126.375 140.53100586 C-126.38152588 141.72517372 -126.38152588 141.72517372 -126.38818359 142.94346619 C-126.17422765 156.37356987 -119.72517451 171.90942959 -110.31640625 181.57421875 C-93.34846909 195.97841193 -72.72832507 197.67831532 -51.3515625 196.2421875 C-36.16962172 194.26276187 -23.51289385 185.62155987 -13.71484375 174.21875 C-13.2772876 173.7136792 -12.83973145 173.2086084 -12.38891602 172.68823242 C-11.16396996 171.25281773 -9.96783483 169.79296355 -8.7734375 168.33203125 C-6.3515625 166.2421875 -6.3515625 166.2421875 -3.37890625 165.6875 C0.37657057 166.37560027 1.98668548 167.6580348 4.8359375 170.1796875 C5.79113281 171.00597656 6.74632812 171.83226562 7.73046875 172.68359375 C8.69339844 173.52792969 9.65632813 174.37226563 10.6484375 175.2421875 C12.43432255 176.70759535 14.22592929 178.16606043 16.0234375 179.6171875 C16.91546875 180.35324219 17.8075 181.08929688 18.7265625 181.84765625 C20.86779883 183.6024395 23.02211739 185.32885819 25.1953125 187.04296875 C26.38839907 188.00473932 27.58111338 188.96697188 28.7734375 189.9296875 C29.34239746 190.36909668 29.91135742 190.80850586 30.49755859 191.26123047 C33.17870897 193.45355686 34.56773941 195.00581438 35.6953125 198.30859375 C35.63943222 201.80576766 35.0277202 202.86720053 32.7734375 205.4921875 C32.11859375 206.26175781 31.46375 207.03132812 30.7890625 207.82421875 C30.08265625 208.62214844 29.37625 209.42007813 28.6484375 210.2421875 C27.98328125 211.05042969 27.318125 211.85867188 26.6328125 212.69140625 C6.87097231 236.00305847 -23.34022867 246.67400902 -52.9765625 249.9921875 C-54.76650832 250.10667701 -56.55883642 250.18608859 -58.3515625 250.2421875 C-58.98175293 250.26265137 -59.61194336 250.28311523 -60.26123047 250.30419922 C-82.69206885 250.93000771 -104.94553748 248.10361444 -125.3515625 238.2421875 C-126.24746094 237.81421875 -127.14335938 237.38625 -128.06640625 236.9453125 C-154.77935944 223.3013938 -171.95138551 198.78040229 -181.0390625 170.76953125 C-192.53075571 132.74505509 -193.44877752 83.52962637 -179.3515625 46.2421875 C-179.11034668 45.59040527 -178.86913086 44.93862305 -178.62060547 44.26708984 C-168.97253048 18.6250926 -149.46023141 -0.5321558 -125 -12.1953125 C-86.11572598 -28.84810651 -34.18803661 -26.38536159 0 0 Z M-111.3515625 44.2421875 C-122.65354094 58.21092489 -125.98201905 72.43812268 -127.3515625 90.2421875 C-92.0415625 90.2421875 -56.7315625 90.2421875 -20.3515625 90.2421875 C-17.22597781 77.73984876 -23.45553325 62.56466332 -29.6640625 51.77734375 C-37.5152107 39.98244749 -49.9319164 33.6688623 -63.5390625 30.77734375 C-65.46402039 30.49403342 -67.40990458 30.36745575 -69.3515625 30.2421875 C-70.07214844 30.190625 -70.79273438 30.1390625 -71.53515625 30.0859375 C-86.17412375 29.50903238 -100.84627235 33.73689735 -111.3515625 44.2421875 Z " fill="#2D50FF" transform="translate(1626.3515625,176.7578125)"/>
<path d="M0 0 C18.93939721 16.05014034 29.3004972 35.02118426 32.43701172 59.74414062 C32.93096037 66.04424547 32.84902775 72.36411439 32.82519531 78.67895508 C32.82927138 80.5187918 32.834619 82.35862608 32.84112549 84.19845581 C32.85466943 89.14182939 32.84955789 94.0850128 32.83998823 99.02838922 C32.83233895 104.21726979 32.83945038 109.4061352 32.84414673 114.59501648 C32.8495827 123.29050599 32.84246298 131.98591867 32.828125 140.68139648 C32.81173576 150.73712778 32.81714096 160.79267718 32.83360422 170.84840423 C32.84720122 179.50009798 32.84914952 188.15173691 32.84128821 196.80343789 C32.83661043 201.96377469 32.83599112 207.12402577 32.84589767 212.28435707 C32.85454137 217.12313927 32.84859329 221.96168516 32.8312149 226.80044174 C32.827239 228.57784189 32.82840289 230.35526185 32.8350029 232.13265419 C32.84316339 234.55264066 32.83296498 236.9718626 32.81796265 239.39179993 C32.82465481 240.09975482 32.83134698 240.80770971 32.83824193 241.53711778 C32.80354376 244.40895784 32.75274097 246.29946447 31.06261635 248.67985249 C28.73098802 250.20637642 26.96068117 250.12530834 24.18701172 250.13232422 C23.11580078 250.1417807 22.04458984 250.15123718 20.94091797 250.16098022 C19.20648437 250.15187119 19.20648437 250.15187119 17.43701172 250.14257812 C16.24978516 250.1454483 15.06255859 250.14831848 13.83935547 250.15127563 C11.32763187 250.15331839 8.81589244 250.14777385 6.30419922 250.13525391 C2.452276 250.11920423 -1.39859783 250.1350965 -5.25048828 250.15429688 C-7.68799061 250.15231448 -10.12549227 250.14847089 -12.56298828 250.14257812 C-13.71927734 250.14865082 -14.87556641 250.15472351 -16.06689453 250.16098022 C-17.13810547 250.15152374 -18.20931641 250.14206726 -19.31298828 250.13232422 C-20.72837891 250.12874405 -20.72837891 250.12874405 -22.17236328 250.12509155 C-25.12725379 249.65422377 -25.81073255 249.14984426 -27.56298828 246.74414062 C-27.9393692 243.82161999 -27.9393692 243.82161999 -27.94152832 240.17558289 C-27.94605845 239.50502784 -27.95058858 238.8344728 -27.95525599 238.1435979 C-27.96690451 235.89135291 -27.95722309 233.63969907 -27.94775391 231.38745117 C-27.95185829 229.77427283 -27.95731838 228.16109744 -27.96403503 226.54792786 C-27.97577728 223.06935145 -27.97823796 219.59093378 -27.97367859 216.11234093 C-27.96687105 210.60116359 -27.98273705 205.09019485 -28.0020752 199.57905579 C-28.03997671 187.86326206 -28.05271698 176.14748623 -28.06298828 164.43164062 C-28.07407053 151.82065288 -28.08961557 139.20976141 -28.13370085 126.5988391 C-28.15195974 121.13249282 -28.15598358 115.66638477 -28.14876556 110.20001543 C-28.14723136 106.77843009 -28.158106 103.3569611 -28.17214394 99.93540764 C-28.17610899 98.36259656 -28.17508684 96.78976265 -28.1683712 95.21696091 C-28.09736049 77.18276973 -30.98087115 60.51341927 -43.87939453 47.00585938 C-53.73812845 38.69697009 -65.88866554 35.20594972 -78.64111328 35.49414062 C-90.40971904 36.50108016 -101.47590038 39.89888823 -109.56298828 48.74414062 C-110.22298828 48.74414062 -110.88298828 48.74414062 -111.56298828 48.74414062 C-111.83240234 49.30746094 -112.10181641 49.87078125 -112.37939453 50.45117188 C-113.62950281 52.8729988 -115.04326773 55.12900968 -116.50048828 57.43164062 C-121.75835448 66.13918002 -123.68389649 74.66368031 -123.69429016 84.81668091 C-123.69640588 85.50502199 -123.69852159 86.19336307 -123.70070142 86.90256298 C-123.70666647 89.19628871 -123.70570379 91.48995889 -123.70483398 93.78369141 C-123.70786766 95.43323866 -123.71138969 97.08278507 -123.71536255 98.73233032 C-123.72323352 102.27794614 -123.72838954 105.82355197 -123.73165321 109.36917496 C-123.73757376 114.97440914 -123.75412209 120.57958019 -123.772995 126.18478394 C-123.77933166 128.10492893 -123.7856573 130.02507397 -123.79197216 131.94521904 C-123.79513797 132.90654739 -123.79830378 133.86787574 -123.80156553 134.85833526 C-123.84363317 147.90375553 -123.87664266 160.94914525 -123.88891602 173.99462891 C-123.89728639 182.80125543 -123.91973385 191.60772446 -123.95827168 200.41427219 C-123.97805699 205.07347738 -123.9904285 209.73244702 -123.98543739 214.39169693 C-123.98080377 218.76998646 -123.99452535 223.14782842 -124.02244949 227.52602768 C-124.0293814 229.13366985 -124.0294664 230.74135811 -124.02224922 232.34899902 C-124.01339827 234.54172499 -124.0289903 236.73296281 -124.05073547 238.92556763 C-124.05312383 240.15297731 -124.05551218 241.380387 -124.05797291 242.64499092 C-124.65898115 246.33322424 -125.61756485 247.51564928 -128.56298828 249.74414062 C-131.0291748 250.2520752 -131.0291748 250.2520752 -133.81884766 250.26171875 C-135.3906781 250.28063171 -135.3906781 250.28063171 -136.9942627 250.29992676 C-138.68343811 250.28778137 -138.68343811 250.28778137 -140.40673828 250.27539062 C-142.14860413 250.28113098 -142.14860413 250.28113098 -143.92565918 250.2869873 C-146.38013577 250.28970855 -148.83464126 250.28233267 -151.2890625 250.265625 C-155.04899669 250.24422028 -158.80701987 250.26542151 -162.56689453 250.29101562 C-164.95101334 250.28837239 -167.33513096 250.2832475 -169.71923828 250.27539062 C-170.84535522 250.28348755 -171.97147217 250.29158447 -173.13171387 250.29992676 C-174.17960083 250.28731812 -175.22748779 250.27470947 -176.30712891 250.26171875 C-177.22772095 250.25853638 -178.14831299 250.255354 -179.09680176 250.2520752 C-182.55528322 249.53976805 -183.48161983 248.625065 -185.56298828 245.74414062 C-186.17219545 242.38686474 -186.10213198 239.05799469 -186.07092285 235.65394592 C-186.07716281 234.61683375 -186.08340278 233.57972158 -186.08983183 232.51118177 C-186.10582721 229.02488494 -186.09313149 225.53928093 -186.08056641 222.05297852 C-186.08598462 219.5580657 -186.09310558 217.06315609 -186.10180664 214.56825256 C-186.11818031 208.48832896 -186.11574544 202.40867873 -186.10415608 196.3287657 C-186.09512679 191.38752548 -186.09389555 186.44634062 -186.09825134 181.50509453 C-186.09886427 180.80213835 -186.09947721 180.09918217 -186.10010871 179.37492428 C-186.1013876 177.94692106 -186.10268446 176.51891785 -186.10399908 175.09091466 C-186.11540929 161.69573232 -186.10228473 148.30065943 -186.08079761 134.90549504 C-186.06293009 123.41098157 -186.06602697 111.91662969 -186.08447266 100.42211914 C-186.10587834 87.07680981 -186.11430651 73.73159647 -186.1020236 60.38627237 C-186.1007494 58.96318242 -186.09949191 57.54009246 -186.09825134 56.11700249 C-186.09732569 55.06670174 -186.09732569 55.06670174 -186.09638134 53.9951828 C-186.09292723 49.06019653 -186.09875815 44.12527111 -186.10816956 39.19029427 C-186.1205591 32.54759642 -186.11173892 25.90515677 -186.08859253 19.26247215 C-186.08329444 16.82154982 -186.08483789 14.38060184 -186.09364319 11.93968964 C-186.10453841 8.61321641 -186.09090671 5.28772901 -186.07092285 1.96131897 C-186.07984574 0.99031079 -186.08876863 0.01930261 -186.0979619 -0.98113006 C-186.0479612 -5.25820961 -185.9415148 -7.6310373 -183.68537903 -11.3551712 C-181.0577432 -13.70832712 -179.80187674 -13.88331186 -176.30712891 -13.88696289 C-175.25924194 -13.899496 -174.21135498 -13.91202911 -173.13171387 -13.92494202 C-172.00559692 -13.91168381 -170.87947998 -13.8984256 -169.71923828 -13.88476562 C-168.55799438 -13.88717758 -167.39675049 -13.88958954 -166.20031738 -13.89207458 C-163.74581486 -13.89109534 -161.29129047 -13.87768361 -158.83691406 -13.8527832 C-155.07687457 -13.81848604 -151.3191856 -13.83211963 -147.55908203 -13.8515625 C-145.17495743 -13.84466404 -142.7908389 -13.83499166 -140.40673828 -13.82226562 C-138.71756287 -13.82970543 -138.71756287 -13.82970543 -136.9942627 -13.83729553 C-135.94637573 -13.8214592 -134.89848877 -13.80562286 -133.81884766 -13.78930664 C-132.43795959 -13.78000877 -132.43795959 -13.78000877 -131.0291748 -13.77052307 C-127.81090351 -13.09890826 -126.60298151 -11.77924231 -124.56298828 -9.25585938 C-124.01708984 -6.96582031 -124.01708984 -6.96582031 -123.95361328 -4.49023438 C-123.92138672 -3.60078125 -123.88916016 -2.71132812 -123.85595703 -1.79492188 C-123.84177734 -0.87453125 -123.82759766 0.04585937 -123.81298828 0.99414062 C-123.78333984 1.93 -123.75369141 2.86585938 -123.72314453 3.83007812 C-123.65259024 6.13485155 -123.59982576 8.4386223 -123.56298828 10.74414062 C-123.10827148 10.20200928 -122.65355469 9.65987793 -122.18505859 9.10131836 C-94.00724674 -24.24638402 -34.0079263 -27.3253316 0 0 Z " fill="#2D50FF" transform="translate(1109.56298828125,172.255859375)"/>
<path d="M0 0 C2.37823785 0.00315159 4.75521619 -0.02036597 7.13330078 -0.0456543 C39.80208216 -0.18136179 71.55008886 11.42626606 95.14501953 34.31567383 C113.91167951 54.25708561 126.19319449 81.74197979 126.29219055 109.31814575 C126.29586724 109.98717954 126.29954393 110.65621332 126.30333203 111.34552085 C126.31427135 113.56881557 126.3181961 115.79206339 126.32202148 118.01538086 C126.328294 119.61778915 126.33494148 121.22019601 126.3419342 122.82260132 C126.36290048 128.07288618 126.37333636 133.32317104 126.38330078 138.57348633 C126.38735248 140.3904306 126.39146952 142.20737472 126.39565086 144.0243187 C126.41469394 152.57211626 126.42892133 161.11990528 126.43726283 169.66771996 C126.44700266 179.48287003 126.47324031 189.29779263 126.51376373 199.11286271 C126.5441158 206.73025596 126.55875002 214.34758477 126.56204385 221.96503723 C126.56437455 226.49905322 126.57307125 231.03282605 126.59850502 235.56677628 C126.79731279 272.96562447 122.34912454 305.18402331 97.14501953 334.31567383 C96.43861328 335.13680664 95.73220703 335.95793945 95.00439453 336.80395508 C73.00814363 360.43733152 39.7553452 370.31879457 8.41455078 371.59692383 C-27.33432874 372.46899543 -61.14981737 363.21102338 -87.67919922 338.46826172 C-108.60290392 318.32430069 -120.23747361 289.0099409 -121.20034671 260.13078308 C-121.2620291 256.64888652 -121.25875439 253.16904894 -121.24316406 249.68676758 C-121.24724552 248.11727538 -121.25259609 246.54778606 -121.25909424 244.978302 C-121.27258695 240.77574016 -121.26754523 236.57340315 -121.25795698 232.37083817 C-121.25026535 227.93504561 -121.25743197 223.49927002 -121.26211548 219.06347656 C-121.26754575 211.61983854 -121.26045366 204.17629034 -121.24609375 196.73266602 C-121.22977254 188.1745264 -121.23506299 179.61660134 -121.25157297 171.05846691 C-121.26526622 163.65913932 -121.2670695 156.25987563 -121.25925696 148.86053944 C-121.25462319 144.46378383 -121.25383514 140.06712846 -121.26386642 135.67037964 C-121.27264912 131.53327461 -121.26631244 127.39644131 -121.24918365 123.25936508 C-121.24527822 121.75756146 -121.24624805 120.25573423 -121.25297165 118.75394058 C-121.31005088 104.68805243 -119.88321248 90.38819967 -115.10498047 77.06567383 C-114.71874512 75.95820801 -114.71874512 75.95820801 -114.32470703 74.82836914 C-105.33397455 49.82053343 -88.94457924 29.59441613 -65.85498047 16.31567383 C-65.29246582 15.99211914 -64.72995117 15.66856445 -64.15039062 15.33520508 C-44.31234929 4.14314069 -22.59554133 -0.06231661 0 0 Z M-62.30419922 58.91723633 C-80.14809444 79.94213154 -84.01005913 103.42035621 -84.00024414 130.25976562 C-84.003245 131.61324657 -84.00664962 132.96672667 -84.01042175 134.32020569 C-84.01917234 137.96102095 -84.02159607 141.60181263 -84.02223754 145.2426374 C-84.02295322 147.52766963 -84.02509725 149.81269605 -84.02773476 152.09772682 C-84.03695905 160.09900918 -84.04107337 168.100275 -84.0402832 176.1015625 C-84.03968341 183.51211885 -84.05022355 190.92260218 -84.06602687 198.33314008 C-84.07918402 204.7352967 -84.08446369 211.1374297 -84.08382779 217.53959972 C-84.08357517 221.34563165 -84.08629389 225.15159858 -84.09700584 228.95761681 C-84.18421584 262.24123737 -82.81896455 291.42101246 -58.55029297 316.71801758 C-39.536649 334.95241384 -15.46885028 338.97092705 9.95751953 338.63208008 C33.34482837 337.9042719 53.56896388 327.73883968 69.52392578 310.78833008 C85.86144463 291.96286419 89.28559161 269.05968549 89.30615234 244.98779297 C89.3107915 243.56888707 89.3158176 242.14998239 89.32119751 240.7310791 C89.33422139 236.90200567 89.3407472 233.0729497 89.34520817 229.24385762 C89.34815631 226.84122888 89.35226432 224.43860472 89.35671234 222.03597832 C89.37036344 214.48878857 89.38004067 206.94160952 89.38391423 199.39440829 C89.38838357 190.73844214 89.40588917 182.08263479 89.43491483 173.42671686 C89.45667537 166.69930686 89.46662617 159.97194104 89.46795535 153.24449629 C89.46899354 149.24383271 89.47468668 145.24331885 89.49277496 141.24269295 C89.63233928 108.47883844 87.68431504 79.80255255 63.83642578 54.90551758 C47.06632655 38.85138317 25.57828892 32.94347365 2.83251953 33.00317383 C1.00817383 32.97900391 1.00817383 32.97900391 -0.85302734 32.9543457 C-24.303672 32.94189183 -46.14897823 41.75714514 -62.30419922 58.91723633 Z " fill="#FF7200" transform="translate(1946.85498046875,54.684326171875)"/>
<path d="M0 0 C2.39941406 0.03393555 2.39941406 0.03393555 5 1 C6.85839844 3.33129883 6.85839844 3.33129883 8.609375 6.45703125 C8.93306061 7.02260742 9.25674622 7.58818359 9.59024048 8.17089844 C10.29029158 9.39820546 10.98282074 10.62982673 11.66864014 11.86514282 C13.14482836 14.52352309 14.6570377 17.16079332 16.16720581 19.79997253 C16.95140402 21.17131092 17.73370983 22.54373307 18.51419067 23.91719055 C22.33507579 30.63221547 26.33797296 37.22537162 30.375 43.8125 C36.5331926 53.89362026 42.60448213 64.02359136 48.625 74.1875 C49.02668396 74.86559723 49.42836792 75.54369446 49.84222412 76.24234009 C50.2421759 76.91751678 50.64212769 77.59269348 51.05419922 78.28833008 C51.85119709 79.63364993 52.64823446 80.97894639 53.4453125 82.32421875 C53.83447845 82.98104141 54.22364441 83.63786407 54.62460327 84.31459045 C58.22679005 90.39020031 61.85948991 96.44728201 65.5 102.5 C69.53802055 109.21361953 73.56115503 115.93561655 77.5546875 122.67578125 C78.14363297 123.66977684 78.14363297 123.66977684 78.74447632 124.68385315 C79.54893803 126.04177184 80.35337096 127.39970758 81.15777588 128.75765991 C81.55945984 129.43575714 81.9611438 130.11385437 82.375 130.8125 C82.77652283 131.49035553 83.17804565 132.16821106 83.59173584 132.86660767 C89.55154629 142.9235822 95.58720597 152.93113971 101.6762085 162.91030884 C107.41410708 172.32041581 113.0135054 181.80559749 118.56506348 191.32659912 C123.74741953 200.20991665 129.01819929 209.03332475 134.375 217.8125 C140.52795494 227.89687684 146.60443066 238.02350447 152.625 248.1875 C153.02668396 248.86559723 153.42836792 249.54369446 153.84222412 250.24234009 C154.2421759 250.91751678 154.64212769 251.59269348 155.05419922 252.28833008 C155.85119709 253.63364993 156.64823446 254.97894639 157.4453125 256.32421875 C158.02906143 257.30945274 158.02906143 257.30945274 158.62460327 258.31459045 C162.22679005 264.39020031 165.85948991 270.44728201 169.5 276.5 C173.53802055 283.21361953 177.56115503 289.93561655 181.5546875 296.67578125 C181.94731781 297.33844498 182.33994812 298.0011087 182.74447632 298.68385315 C183.54893803 300.04177184 184.35337096 301.39970758 185.15777588 302.75765991 C185.55945984 303.43575714 185.9611438 304.11385437 186.375 304.8125 C186.77652283 305.49035553 187.17804565 306.16821106 187.59173584 306.86660767 C193.55154629 316.9235822 199.58720597 326.93113971 205.6762085 336.91030884 C211.40797339 346.31035661 217.00332064 355.78436617 222.54693604 365.29638672 C228.81937585 376.05438235 235.24154327 386.71628706 241.73242188 397.34375 C242.40853516 398.45105469 243.08464844 399.55835938 243.78125 400.69921875 C244.38001953 401.67721436 244.97878906 402.65520996 245.59570312 403.6628418 C248.02571939 407.70709523 248.33557224 410.21809555 248 415 C246.93099976 416.69641113 246.93099976 416.69641113 245 418 C241.82559204 418.39440918 241.82559204 418.39440918 237.85400391 418.41992188 C237.1300795 418.42839142 236.40615509 418.43686096 235.66029358 418.44558716 C233.26553813 418.46899884 230.87142377 418.46997826 228.4765625 418.46875 C226.81130719 418.47584996 225.14605434 418.48354871 223.48080444 418.49182129 C219.98876143 418.50527627 216.49694451 418.50683075 213.00488281 418.50097656 C208.53334853 418.49508454 204.06290156 418.52564557 199.59157753 418.56609344 C196.15139946 418.59196735 192.71148312 418.59484809 189.27122116 418.59120178 C187.62300258 418.59289387 185.97477203 418.602545 184.32664871 418.62034607 C182.01862569 418.64252771 179.7128018 418.6328405 177.40478516 418.61523438 C176.09256989 418.61728882 174.78035461 418.61934326 173.42837524 418.62145996 C169.12463041 417.84132217 167.72730032 416.34280777 165 413 C163.54045686 410.81223178 162.19017814 408.66316997 160.8828125 406.390625 C160.50917572 405.75578186 160.13553894 405.12093872 159.75057983 404.46685791 C158.53513517 402.39854063 157.33019405 400.32430379 156.125 398.25 C155.272344 396.79571961 154.41881773 395.34194914 153.56445312 393.88867188 C151.84411355 390.96178134 150.12670439 388.03320302 148.41113281 385.10351562 C145.15007225 379.5433479 141.82787035 374.0203658 138.5 368.5 C134.46124287 361.78682701 130.43884231 355.06437895 126.4453125 348.32421875 C126.05268219 347.66155502 125.66005188 346.9988913 125.25552368 346.31614685 C124.45106197 344.95822816 123.64662904 343.60029242 122.84222412 342.24234009 C122.44054016 341.56424286 122.0388562 340.88614563 121.625 340.1875 C121.22347717 339.50964447 120.82195435 338.83178894 120.40826416 338.13339233 C114.44845371 328.0764178 108.41279403 318.06886029 102.3237915 308.08969116 C96.58589292 298.67958419 90.9864946 289.19440251 85.43493652 279.67340088 C80.25258114 270.79008449 74.98185235 261.96664312 69.625 253.1875 C63.40856363 242.99957725 57.27072063 232.76805118 51.1875 222.5 C50.78098206 221.81384613 50.37446411 221.12769226 49.95562744 220.42074585 C49.14853777 219.05838607 48.34144953 217.69602545 47.53436279 216.33366394 C47.14532776 215.67699234 46.75629272 215.02032074 46.35546875 214.34375 C45.97304016 213.69815628 45.59061157 213.05256256 45.19659424 212.3874054 C42.14997839 207.24685288 39.08163091 202.1196424 36 197 C32.52746247 191.23092807 29.07632782 185.44962653 25.64453125 179.65625 C25.25558685 178.99971436 24.86664246 178.34317871 24.46591187 177.66674805 C24.0698172 176.99812744 23.67372253 176.32950684 23.265625 175.640625 C15.72463136 162.91142774 8.12305891 150.22400982 0.421875 137.59106445 C-5.83243661 127.32021659 -11.97054543 116.98177831 -18.08544922 106.62744141 C-21.76215378 100.40827222 -25.46598948 94.21201869 -29.27734375 88.07421875 C-29.93065674 87.01952393 -30.58396973 85.9648291 -31.25708008 84.87817383 C-32.46317844 82.93905267 -33.67730959 81.00489412 -34.90112305 79.0769043 C-40.13029658 70.66461739 -40.13029658 70.66461739 -40 66 C-38.99679665 63.55661516 -37.99338218 61.59925058 -36.625 59.375 C-36.2328833 58.70823242 -35.8407666 58.04146484 -35.43676758 57.35449219 C-33.97766762 54.89061956 -32.48960928 52.44554831 -31 50 C-29.67811147 47.81006117 -28.35651737 45.6199446 -27.03515625 43.4296875 C-24.1221826 38.60932658 -21.19364617 33.79865201 -18.2578125 28.9921875 C-13.97682186 21.98214808 -9.75755501 14.93579409 -5.57885742 7.86425781 C-5.13131104 7.11241211 -4.68376465 6.36056641 -4.22265625 5.5859375 C-3.83859619 4.9367334 -3.45453613 4.2875293 -3.05883789 3.61865234 C-2 2 -2 2 0 0 Z " fill="#10AF4A" transform="translate(202,4)"/>
<path d="M0 0 C0.99773438 0.78117187 0.99773438 0.78117187 2.015625 1.578125 C24.12807544 19.51184465 32.87624918 50.3102021 35.79428101 77.47601318 C36.16388722 82.01074867 36.16278024 86.5423338 36.16796875 91.08984375 C36.17129715 92.11557999 36.17462555 93.14131622 36.17805481 94.19813538 C36.18308617 96.34863846 36.18546432 98.49914924 36.18530273 100.6496582 C36.18750977 103.9521129 36.20576092 107.25424398 36.22460938 110.55664062 C36.22753992 112.65104053 36.22952698 114.74544201 36.23046875 116.83984375 C36.23765427 117.82935532 36.24483978 118.81886688 36.25224304 119.83836365 C36.24916641 120.7501387 36.24608978 121.66191376 36.24291992 122.60131836 C36.24434494 123.40468124 36.24576996 124.20804413 36.24723816 125.03575134 C36 127 36 127 34 129 C31.08333397 129.26171303 31.08333397 129.26171303 27.26766968 129.2784729 C26.56767337 129.2842653 25.86767707 129.2900577 25.14646876 129.29602563 C22.78949436 129.31309677 20.43271492 129.31590818 18.07568359 129.31884766 C16.39067602 129.32814095 14.70567308 129.33830871 13.02067566 129.34928894 C8.4362394 129.37667067 3.851834 129.39176246 -0.73266268 129.40471697 C-5.52000261 129.42031188 -10.30727917 129.44711361 -15.09457397 129.4727478 C-24.16451283 129.51960025 -33.23446353 129.55631299 -42.30446184 129.58942068 C-52.62841375 129.62759648 -62.95230212 129.67701847 -73.27620053 129.72740483 C-94.51742015 129.83082081 -115.75867996 129.92004968 -137 130 C-136.85258198 133.83999173 -136.7001589 137.67976955 -136.546875 141.51953125 C-136.50546387 142.59980591 -136.46405273 143.68008057 -136.42138672 144.79309082 C-135.72306327 162.09635996 -133.36409487 180.8434685 -120.2890625 193.6796875 C-119 195 -119 195 -119 197 C-118.42378906 197.26167969 -117.84757812 197.52335938 -117.25390625 197.79296875 C-114.8599875 199.0749807 -113.01170197 200.56396712 -110.9375 202.3125 C-100.37551889 210.59034536 -85.45091428 215.44051656 -72 216 C-70.85402344 216.0515625 -69.70804688 216.103125 -68.52734375 216.15625 C-47.4711301 216.78576836 -28.05324289 211.2609368 -12.42578125 196.58203125 C-7.71937081 191.55600041 -3.95226613 186.14514268 -0.41015625 180.25 C1 178 1 178 3 176 C9.00590298 176.09311477 13.68540273 179.38981571 18.6875 182.375 C19.96850586 183.1175 19.96850586 183.1175 21.27539062 183.875 C28.77941301 188.28427631 28.77941301 188.28427631 31 191 C31.98666855 199.1519897 27.75311785 203.80989303 23 210 C20.1209866 213.45874647 17.10647238 216.74560036 14 220 C13.46117188 220.61359375 12.92234375 221.2271875 12.3671875 221.859375 C-3.70304249 239.46394856 -31.31198441 248.97857948 -54.55761719 250.18457031 C-88.3153457 251.34920776 -117.99330807 246.06118811 -143.58544922 222.37597656 C-147.16136188 218.89757757 -150.13125819 215.06723839 -153 211 C-153.58007812 210.21882812 -154.16015625 209.43765625 -154.7578125 208.6328125 C-164.00032859 195.32856288 -169.30766953 178.87211428 -172 163 C-172.22212158 161.75597412 -172.22212158 161.75597412 -172.44873047 160.48681641 C-175.32407677 143.46068075 -175.2904627 126.34327557 -175.3125 109.125 C-175.31787781 107.42748596 -175.31787781 107.42748596 -175.32336426 105.69567871 C-175.34283072 94.25312677 -175.17506769 82.8757354 -174.11328125 71.4765625 C-174.03709061 70.65721222 -173.96089996 69.83786194 -173.88240051 68.99368286 C-171.81321256 49.28014521 -164.70495377 30.32137282 -152 15 C-151.27425781 14.10023438 -150.54851563 13.20046875 -149.80078125 12.2734375 C-133.66225164 -6.66599395 -109.93155095 -18.10688986 -85.29370117 -20.83227539 C-55.31077765 -23.02474675 -23.77086647 -20.19630008 0 0 Z M-120 32 C-134.43378201 49.46204608 -138.81731497 73.78654667 -138 96 C-136.9701402 97.25232154 -136.9701402 97.25232154 -134.75298977 97.12304783 C-133.7510008 97.12212604 -132.74901182 97.12120424 -131.71665955 97.12025452 C-129.99811012 97.12231651 -129.99811012 97.12231651 -128.24484253 97.12442017 C-126.97673737 97.12082489 -125.7086322 97.11722961 -124.40209961 97.11352539 C-123.06206769 97.11324352 -121.72203561 97.11340125 -120.38200378 97.1139679 C-116.73340562 97.11425587 -113.08484005 97.1083592 -109.43624949 97.10139394 C-105.62722484 97.09516034 -101.8181995 97.0945566 -98.00917053 97.09336853 C-90.79142246 97.09025523 -83.57368946 97.08204186 -76.35594803 97.07201904 C-68.14084743 97.06085786 -59.92574612 97.05534744 -51.71063983 97.05032361 C-34.80708449 97.03985925 -17.90354384 97.02225983 -1 97 C-0.98693999 94.62123844 -0.977453 92.24254991 -0.9699707 89.86376953 C-0.9659449 89.1971077 -0.9619191 88.53044586 -0.9577713 87.84358215 C-0.94427915 82.10996424 -1.38107133 76.54565977 -2.1875 70.875 C-2.3205957 69.93487061 -2.45369141 68.99474121 -2.59082031 68.02612305 C-4.4593907 55.89191122 -8.82651951 46.01063233 -16 36 C-16.46019531 35.35417969 -16.92039062 34.70835937 -17.39453125 34.04296875 C-27.6443117 20.95751417 -43.95484248 14.2179974 -60 12 C-82.11575264 9.92021728 -104.51524048 15.09996676 -120 32 Z " fill="#FF7200" transform="translate(2524,176)"/>
<path d="M0 0 C1.10214844 1.01126953 1.10214844 1.01126953 2.2265625 2.04296875 C2.98195313 2.70683594 3.73734375 3.37070313 4.515625 4.0546875 C20.33678649 18.76129981 28.4921402 40.14097112 29.50681686 61.49874496 C29.64866103 66.36080712 29.63298341 71.22183839 29.61474609 76.08544922 C29.61882203 77.93676053 29.62416959 79.78806941 29.63067627 81.63937378 C29.6442208 86.61367057 29.63910866 91.58777839 29.62953901 96.562078 C29.62189109 101.78212296 29.62900069 107.00215282 29.63369751 112.22219849 C29.63913343 120.96896244 29.63201343 129.71565001 29.61767578 138.46240234 C29.60128182 148.58063723 29.60669513 158.69869139 29.623155 168.81692207 C29.63674658 177.52040434 29.63870311 186.22383211 29.63083899 194.92732155 C29.62615881 200.11948437 29.62554857 205.31156197 29.63544846 210.50371933 C29.64408442 215.37122514 29.63815841 220.23849582 29.62076569 225.1059761 C29.6167858 226.89508421 29.61796038 228.68421199 29.62455368 230.47331238 C29.63269852 232.90678545 29.62253511 235.33949489 29.60751343 237.7729187 C29.61420559 238.48767738 29.62089776 239.20243606 29.62779272 239.9388541 C29.60408592 241.90550041 29.60408592 241.90550041 29.2265625 245.04296875 C24.36233326 248.28578824 18.6684189 247.41485919 12.9753418 247.41357422 C10.79982196 247.41794712 8.62633273 247.45427298 6.45117188 247.4921875 C5.06511109 247.49805618 3.67904069 247.50202523 2.29296875 247.50390625 C1.03427979 247.51212402 -0.22440918 247.5203418 -1.52124023 247.52880859 C-5.47368262 246.9383604 -6.38652991 246.19546558 -8.7734375 243.04296875 C-9.27286625 239.8228159 -9.27286625 239.8228159 -9.27223206 235.92982483 C-9.28030889 234.85427366 -9.28030889 234.85427366 -9.28854889 233.75699419 C-9.30182709 231.35335514 -9.28667001 228.95073608 -9.27172852 226.54711914 C-9.27555157 224.8237969 -9.28117049 223.10047784 -9.28845215 221.37716675 C-9.30041411 217.66392481 -9.29990419 213.95096559 -9.28985786 210.23771858 C-9.27429631 204.35706037 -9.28797837 198.47669223 -9.30589294 192.59605408 C-9.33673945 181.16076374 -9.33821471 169.72556167 -9.33624268 158.29023743 C-9.33485106 143.76754222 -9.34533558 129.24491602 -9.3848204 114.72227091 C-9.39969209 108.88682968 -9.39952895 103.05164581 -9.38734257 97.21620095 C-9.38260209 93.56851337 -9.39019767 89.92092239 -9.40088654 86.27325058 C-9.40327509 84.59358458 -9.40062029 82.91390182 -9.39227867 81.23425484 C-9.3033209 62.16596201 -12.97353346 45.32043799 -26.44335938 31.10717773 C-38.79658798 18.78956733 -54.45012889 14.04296875 -71.64453125 14.04296875 C-89.79680322 14.93478969 -105.16450876 20.52228326 -117.7734375 34.04296875 C-130.17016697 48.79289344 -132.07779649 64.85980498 -132.02880859 83.36279297 C-132.03156253 85.10159977 -132.03524487 86.84040531 -132.03977966 88.57920837 C-132.04785425 92.30538512 -132.0500697 96.03150199 -132.04783249 99.75768661 C-132.04498852 105.64890151 -132.0593891 111.53999758 -132.07681274 117.43118286 C-132.12374469 134.17676036 -132.14779732 150.92232834 -132.15429688 167.66796875 C-132.15804348 176.93020555 -132.17603293 186.1923065 -132.20939124 195.45448506 C-132.22962706 201.3125286 -132.23196601 207.17022238 -132.22111106 213.0282867 C-132.21850923 216.6657493 -132.23248047 220.30300679 -132.25119209 223.94041634 C-132.25652608 225.62869712 -132.25499675 227.31701539 -132.24615669 229.00528145 C-132.23507323 231.30722663 -132.24842055 233.60777794 -132.26791382 235.90963745 C-132.26954812 237.84251271 -132.26954812 237.84251271 -132.27121544 239.81443596 C-132.7734375 243.04296875 -132.7734375 243.04296875 -134.6017704 245.45744514 C-137.70705189 247.72459608 -140.02570394 247.54467763 -143.83984375 247.5390625 C-144.51514633 247.54051773 -145.19044891 247.54197296 -145.88621521 247.54347229 C-147.30919728 247.54181695 -148.73219792 247.53029627 -150.1550293 247.50952148 C-152.33264093 247.48051266 -154.50782426 247.48892759 -156.68554688 247.50195312 C-158.07032432 247.4957167 -159.4550941 247.48732649 -160.83984375 247.4765625 C-162.09740479 247.46681396 -163.35496582 247.45706543 -164.65063477 247.44702148 C-167.7734375 247.04296875 -167.7734375 247.04296875 -169.44519204 245.79226786 C-171.1203693 243.58605962 -171.14836138 242.40266696 -171.14816761 239.65013027 C-171.15537415 238.74667447 -171.1625807 237.84321866 -171.17000562 236.9123854 C-171.16263133 235.91862351 -171.15525705 234.92486161 -171.1476593 233.90098572 C-171.15163371 232.84627707 -171.15560811 231.79156841 -171.15970296 230.70489889 C-171.16936532 227.15330987 -171.15748386 223.60211527 -171.14575195 220.05053711 C-171.1481786 217.51149852 -171.15189667 214.97246089 -171.15681458 212.4334259 C-171.16526382 206.24278623 -171.1596938 200.05229408 -171.14755163 193.8616647 C-171.13394642 186.6574171 -171.13556815 179.45319737 -171.13768496 172.24894018 C-171.14087633 159.39827667 -171.12919827 146.54766856 -171.10961914 133.69702148 C-171.09061038 121.21751214 -171.08353244 108.73806771 -171.08911133 96.25854492 C-171.09516404 82.67889869 -171.0950017 69.09928102 -171.0836255 55.51963717 C-171.08241816 54.07271326 -171.08121218 52.62578935 -171.08000755 51.17886543 C-171.07940401 50.46689137 -171.07880048 49.75491731 -171.07817865 49.02136828 C-171.07429353 43.99533597 -171.0746954 38.96931426 -171.0765934 33.94328117 C-171.07893248 27.18410942 -171.0704141 20.42503356 -171.054533 13.66587639 C-171.05027442 11.17854153 -171.04945009 8.69119819 -171.05222321 6.20386124 C-171.05542298 2.82180352 -171.04641909 -0.56000027 -171.03413391 -3.94203186 C-171.03791323 -4.93802448 -171.04169256 -5.9340171 -171.04558641 -6.96019131 C-171.03975421 -7.86103937 -171.03392202 -8.76188743 -171.02791309 -9.69003391 C-171.02661293 -10.86206957 -171.02661293 -10.86206957 -171.0252865 -12.05778271 C-170.7734375 -13.95703125 -170.7734375 -13.95703125 -168.7734375 -15.95703125 C-166.28753424 -16.14430213 -163.91517628 -16.2128241 -161.4296875 -16.1875 C-160.70479126 -16.18704178 -159.97989502 -16.18658356 -159.23303223 -16.18611145 C-157.69977177 -16.18308924 -156.16651438 -16.17520383 -154.63330078 -16.1628418 C-152.28276728 -16.14460364 -149.93262807 -16.14233199 -147.58203125 -16.14257812 C-146.09374658 -16.13766216 -144.6054646 -16.1318335 -143.1171875 -16.125 C-142.41194946 -16.12388718 -141.70671143 -16.12277435 -140.98010254 -16.12162781 C-136.00558822 -16.07310661 -136.00558822 -16.07310661 -133.7734375 -14.95703125 C-132.75755772 -11.90939191 -132.57539344 -9.60984158 -132.45703125 -6.4140625 C-132.41513672 -5.34091797 -132.37324219 -4.26777344 -132.33007812 -3.16210938 C-132.29076172 -2.04255859 -132.25144531 -0.92300781 -132.2109375 0.23046875 C-132.16775391 1.36162109 -132.12457031 2.49277344 -132.08007812 3.65820312 C-131.97394651 6.45300229 -131.87189365 9.24789037 -131.7734375 12.04296875 C-131.27287842 11.36782227 -130.77231934 10.69267578 -130.2565918 9.99707031 C-117.99059228 -6.33980682 -100.62963975 -15.58582776 -80.53515625 -18.640625 C-52.77943212 -22.43127275 -21.91701136 -18.94831919 0 0 Z " fill="#FF7200" transform="translate(2283.7734375,174.95703125)"/>
<path d="M0 0 C0.92453476 -0.00945648 1.84906952 -0.01891296 2.80162048 -0.02865601 C4.2892263 -0.01954697 4.2892263 -0.01954697 5.80688477 -0.01025391 C6.83258072 -0.01312408 7.85827667 -0.01599426 8.91505432 -0.01895142 C11.08286084 -0.02099163 13.25068579 -0.0154648 15.41845703 -0.00292969 C18.73259801 0.01310765 22.04551638 -0.00277188 25.35961914 -0.02197266 C27.4670437 -0.0199899 29.57446751 -0.01614554 31.68188477 -0.01025391 C32.67159775 -0.0163266 33.66131073 -0.02239929 34.68101501 -0.02865601 C43.52983561 0.06154545 43.52983561 0.06154545 47.31079102 3.38818359 C49.23013257 6.49232498 49.56088377 8.84934514 49.5613308 12.47073936 C49.56632949 13.50260506 49.57132819 14.53447076 49.57647836 15.59760511 C49.56948354 17.2957336 49.56948354 17.2957336 49.56234741 19.02816772 C49.56531755 20.23199998 49.56828769 21.43583223 49.57134783 22.67614424 C49.57767285 26.01906483 49.57507754 29.36176703 49.56882906 32.70467377 C49.56429962 36.30939584 49.57133319 39.91409646 49.57713318 43.51881409 C49.58577069 49.76605366 49.58757322 56.01326491 49.585186 62.26050949 C49.58209063 71.29954243 49.59371924 80.33851265 49.6097358 89.37752981 C49.63570624 104.05099734 49.6557207 118.72446492 49.66918945 133.39794922 C49.66999982 134.27634471 49.67081019 135.1547402 49.67164512 136.05975373 C49.68286695 148.52573878 49.68814775 160.99171937 49.69103225 173.45770879 C49.69123623 174.3354979 49.69144022 175.213287 49.69165039 176.11767578 C49.69185033 176.99439616 49.69205026 177.87111655 49.69225626 178.77440421 C49.6959882 193.3901742 49.71506669 208.00587623 49.74674475 222.62161219 C49.76566942 231.63821266 49.77161468 240.65463894 49.76092757 249.67125382 C49.75461231 255.84932552 49.76263809 262.02727224 49.78198169 268.20531653 C49.79267285 271.77065855 49.7968 275.33569715 49.78351021 278.90103722 C49.76924957 282.76560071 49.78576734 286.62968363 49.80526733 290.49423218 C49.79614268 291.6218564 49.78701802 292.74948062 49.77761686 293.91127527 C49.83792475 300.0345385 50.13302091 303.77300089 54.31079102 308.38818359 C60.01395101 312.19029026 66.45466075 311.64343417 73.13110352 311.91162109 C76.57480742 312.42775362 77.26808684 312.71611459 79.31079102 315.38818359 C79.69847107 317.36120605 79.69847107 317.36120605 79.71484375 319.62841797 C79.72752792 320.47940063 79.7402121 321.3303833 79.75328064 322.20715332 C79.750345 323.12283081 79.74740936 324.0385083 79.74438477 324.98193359 C79.74962662 325.92500366 79.75486847 326.86807373 79.76026917 327.83972168 C79.76669248 329.83356746 79.76534838 331.82745111 79.75683594 333.82128906 C79.74832267 336.87682317 79.77708825 339.93049038 79.80883789 342.98583984 C79.81044985 344.9220372 79.80987247 346.85823787 79.80688477 348.79443359 C79.81811874 349.71011108 79.82935272 350.62578857 79.84092712 351.56921387 C79.8268557 352.84568787 79.8268557 352.84568787 79.8125 354.14794922 C79.81233383 354.89612915 79.81216766 355.64430908 79.81199646 356.41516113 C79.31079102 358.38818359 79.31079102 358.38818359 77.57130432 360.12893677 C75.01762302 361.55149644 73.54500068 361.76778472 70.64086914 361.77636719 C69.71890747 361.78582367 68.7969458 361.79528015 67.8470459 361.80502319 C66.35956848 361.79591415 66.35956848 361.79591415 64.84204102 361.78662109 C63.29510559 361.79092636 63.29510559 361.79092636 61.71691895 361.7953186 C59.53140719 361.79736017 57.3458772 361.79182386 55.16040039 361.77929688 C51.85072696 361.76337571 48.54229924 361.77907481 45.23266602 361.79833984 C28.10291145 361.81642152 14.090959 360.86076645 0.99829102 348.57568359 C-10.38970608 336.52185603 -11.84125598 322.50234718 -11.82965088 306.6530304 C-11.832622 305.37973804 -11.83559312 304.10644569 -11.83865428 302.79456872 C-11.84668095 299.27640304 -11.8485114 295.7582578 -11.84925175 292.24008405 C-11.85110971 288.43981534 -11.85866037 284.63955706 -11.86538696 280.83929443 C-11.87893634 272.5401118 -11.88498868 264.24093403 -11.88939762 255.94174218 C-11.89216377 250.75957846 -11.89640161 245.5774166 -11.90090179 240.39525414 C-11.91308619 226.04420368 -11.92338963 211.6931547 -11.92677689 197.34209919 C-11.92699645 196.42471087 -11.92721602 195.50732254 -11.92744224 194.56213458 C-11.92766052 193.64258785 -11.92787879 192.72304112 -11.92810369 191.77562934 C-11.92854715 189.9123499 -11.92899371 188.04907046 -11.92944336 186.18579102 C-11.92966479 185.26154539 -11.92988622 184.33729976 -11.93011436 183.38504668 C-11.93406729 168.3898026 -11.95154009 153.39460696 -11.97480288 138.39938162 C-11.99849929 123.00042329 -12.01097782 107.60148931 -12.0121448 92.20251244 C-12.01306212 83.55772933 -12.0188293 74.91300949 -12.03696442 66.26824379 C-12.05234177 58.91239919 -12.0574996 51.55663745 -12.04922631 44.20077983 C-12.04531243 40.44722344 -12.04628544 36.69383405 -12.06028366 32.94029808 C-12.07530935 28.8742059 -12.06717882 24.80849215 -12.05670166 20.74238586 C-12.06475806 19.55232211 -12.07281447 18.36225835 -12.08111501 17.13613206 C-12.07123024 15.50359555 -12.07123024 15.50359555 -12.06114578 13.8380785 C-12.06174287 12.8995695 -12.06233996 11.9610605 -12.06295514 10.99411184 C-11.48982747 6.998005 -9.69828312 4.3406973 -6.79478455 1.59994507 C-4.3255053 0.17887165 -2.8353919 0.00834472 0 0 Z " fill="#2D51FF" transform="translate(1717.689208984375,60.61181640625)"/>
<path d="M0 0 C0.68812271 -0.00511093 1.37624542 -0.01022186 2.08522034 -0.01548767 C4.35963641 -0.02938705 6.63374963 -0.0284269 8.90820312 -0.02612305 C10.48856723 -0.03000939 12.06893029 -0.03434394 13.64929199 -0.03910828 C16.96137885 -0.04657092 20.27335912 -0.04627862 23.58544922 -0.04101562 C27.83271667 -0.03521654 32.07954866 -0.05216204 36.32674408 -0.0753603 C39.59009355 -0.09008057 42.85333769 -0.09097176 46.11671448 -0.08785057 C47.68283451 -0.0883645 49.24896033 -0.09361572 50.81504822 -0.10366249 C53.00329034 -0.11597894 55.19067814 -0.10926535 57.37890625 -0.09765625 C58.62450317 -0.09828568 59.8701001 -0.0989151 61.15344238 -0.0995636 C64.18945312 0.2746582 64.18945312 0.2746582 66.1151123 1.79792786 C66.46964478 2.28524887 66.82417725 2.77256989 67.18945312 3.2746582 C65.93184243 7.38363108 64.4096912 10.92872807 62.24023438 14.6340332 C61.64645996 15.6552124 61.05268555 16.6763916 60.44091797 17.72851562 C59.80105957 18.81624268 59.16120117 19.90396973 58.50195312 21.0246582 C57.4928378 22.75448227 56.48373343 24.48431284 55.47528076 26.21452332 C54.77781609 27.41043878 54.07960529 28.60591937 53.38067627 29.80097961 C50.90957252 34.02777611 48.46614487 38.26965957 46.03710938 42.52075195 C45.36423371 43.69624047 44.69130152 44.87169664 44.01831055 46.04711914 C42.7440505 48.27432763 41.47197246 50.50278637 40.20239258 52.73266602 C37.10440589 58.12990299 33.92319519 63.29398718 30.18945312 68.2746582 C27.89208984 68.07910156 27.89208984 68.07910156 25.18945312 67.2746582 C23.48291016 65.18701172 23.48291016 65.18701172 21.94726562 62.40356445 C21.36315918 61.36635254 20.77905273 60.32914062 20.17724609 59.26049805 C19.56252441 58.1307959 18.94780273 57.00109375 18.31445312 55.8371582 C17.66274822 54.66900945 17.00923693 53.5018668 16.35400391 52.33569336 C14.98541767 49.89653256 13.62484176 47.45315233 12.26953125 45.0065918 C8.94021801 39.0128499 5.49646607 33.08494635 2.06445312 27.1496582 C1.44973145 26.07917236 0.83500977 25.00868652 0.20166016 23.90576172 C-2.72410968 18.82057197 -5.68356979 13.78940459 -8.90966797 8.88793945 C-10.21464711 6.55100119 -10.42082184 4.8683268 -9.81054688 2.2746582 C-6.14789913 -0.16710696 -4.36724331 0.01615418 0 0 Z " fill="#FF7200" transform="translate(91.810546875,353.725341796875)"/>
<path d="M0 0 C0.68797668 -0.00335861 1.37595337 -0.00671722 2.08477783 -0.01017761 C4.36456089 -0.01969555 6.64427057 -0.02163112 8.92407227 -0.02270508 C10.50586477 -0.02591699 12.08765698 -0.02928101 13.66944885 -0.03279114 C16.98748463 -0.03878445 20.30549435 -0.04063082 23.62353516 -0.04003906 C27.87857797 -0.03993741 32.13345403 -0.05359201 36.3884573 -0.07081127 C39.65607981 -0.08192076 42.92366188 -0.0839586 46.19130135 -0.08342934 C47.76020953 -0.08461095 49.32911871 -0.08904286 50.89800835 -0.0967617 C53.09097912 -0.10654086 55.28358608 -0.10369199 57.4765625 -0.09765625 C59.34948219 -0.09979378 59.34948219 -0.09979378 61.26023865 -0.10197449 C64.30297852 0.14526367 64.30297852 0.14526367 67.30297852 2.14526367 C67.90432079 6.18406001 66.83490126 8.54379498 64.76782227 11.96948242 C64.21288086 12.90324707 63.65793945 13.83701172 63.08618164 14.79907227 C62.47709961 15.80019043 61.86801758 16.80130859 61.24047852 17.83276367 C59.95702604 19.98457063 58.67450725 22.13693472 57.39282227 24.28979492 C56.38711182 25.96936279 56.38711182 25.96936279 55.36108398 27.68286133 C51.93782938 33.42092097 48.62809423 39.22501427 45.30297852 45.02026367 C43.52905836 48.10897997 41.75313266 51.19603619 39.95922852 54.27319336 C38.85001864 56.19665223 37.7667322 58.13528214 36.70922852 60.08764648 C36.20391602 60.99611328 35.69860352 61.90458008 35.17797852 62.84057617 C34.74227539 63.64769043 34.30657227 64.45480469 33.85766602 65.28637695 C31.85196716 67.68452254 30.34867929 67.84210364 27.30297852 68.14526367 C22.62523161 61.36429403 18.44509671 54.36133432 14.36547852 47.20776367 C13.05355594 44.91185779 11.74118876 42.61621377 10.42797852 40.32104492 C10.09327042 39.73531708 9.75856232 39.14958923 9.41371155 38.54611206 C7.32828672 34.90549146 5.21081913 31.28582099 3.06471252 27.6806488 C2.00468198 25.89959693 0.94987847 24.11554991 -0.10351562 22.33056641 C-1.43374173 20.08058305 -2.77373473 17.83633881 -4.12451172 15.59863281 C-4.72465088 14.57761475 -5.32479004 13.55659668 -5.94311523 12.50463867 C-6.47606201 11.61228516 -7.00900879 10.71993164 -7.55810547 9.80053711 C-8.8738075 6.73310404 -8.91042854 4.44959197 -8.69702148 1.14526367 C-5.79069814 -0.307898 -3.24641406 0.00991705 0 0 Z " fill="#FF7200" transform="translate(8.697021484375,353.854736328125)"/>
<path d="M0 0 C0.68797668 -0.00335861 1.37595337 -0.00671722 2.08477783 -0.01017761 C4.36456089 -0.01969555 6.64427057 -0.02163112 8.92407227 -0.02270508 C10.50586477 -0.02591699 12.08765698 -0.02928101 13.66944885 -0.03279114 C16.98748463 -0.03878445 20.30549435 -0.04063082 23.62353516 -0.04003906 C27.87857797 -0.03993741 32.13345403 -0.05359201 36.3884573 -0.07081127 C39.65607981 -0.08192076 42.92366188 -0.0839586 46.19130135 -0.08342934 C47.76020953 -0.08461095 49.32911871 -0.08904286 50.89800835 -0.0967617 C53.09097912 -0.10654086 55.28358608 -0.10369199 57.4765625 -0.09765625 C59.34948219 -0.09979378 59.34948219 -0.09979378 61.26023865 -0.10197449 C64.30297852 0.14526367 64.30297852 0.14526367 67.30297852 2.14526367 C66.76885299 6.5690226 65.71461794 9.6775815 63.45141602 13.50463867 C62.55579956 15.03640747 62.55579956 15.03640747 61.64208984 16.59912109 C60.99393311 17.68684814 60.34577637 18.7745752 59.67797852 19.89526367 C58.66310738 21.62503736 57.64825126 23.35482006 56.6342926 25.08512878 C55.57622897 26.88820897 54.51427215 28.68895507 53.4519043 30.48950195 C49.96320268 36.41219985 46.54404993 42.37514169 43.11547852 48.33276367 C41.34135181 51.4073046 39.56719608 54.48178144 37.78686523 57.55273438 C36.86827075 59.15762987 35.96550263 60.77183983 35.08862305 62.39990234 C32.57640409 67.05205041 32.57640409 67.05205041 29.55297852 68.08276367 C28.81047852 68.10338867 28.06797852 68.12401367 27.30297852 68.14526367 C24.45745812 64.73692721 22.1208625 61.31059383 19.93969727 57.44604492 C19.30692871 56.33092529 18.67416016 55.21580566 18.0222168 54.06689453 C17.69094788 53.47842743 17.35967896 52.88996033 17.01837158 52.28366089 C15.61930027 49.79842142 14.21064106 47.31866197 12.80267334 44.8384552 C12.07271369 43.55227496 11.34326707 42.26580343 10.61431885 40.97904968 C6.75131485 34.16154717 2.84369023 27.37009332 -1.07202148 20.58276367 C-2.02588745 18.92531128 -2.02588745 18.92531128 -2.99902344 17.234375 C-3.58772217 16.2136792 -4.1764209 15.1929834 -4.78295898 14.14135742 C-5.29906738 13.24602295 -5.81517578 12.35068848 -6.34692383 11.42822266 C-7.40835716 9.63338303 -8.54035652 7.88026112 -9.69702148 6.14526367 C-9.44702148 3.52026367 -9.44702148 3.52026367 -8.69702148 1.14526367 C-5.79069814 -0.307898 -3.24641406 0.00991705 0 0 Z " fill="#FF7300" transform="translate(174.697021484375,353.854736328125)"/>
<path d="M0 0 C1.01755371 -0.00284752 1.01755371 -0.00284752 2.05566406 -0.00575256 C4.29764368 -0.00945669 6.53929918 0.00123883 8.78125 0.01245117 C10.33919232 0.01364334 11.89713537 0.01409606 13.45507812 0.01383972 C16.72009786 0.01540398 19.98500787 0.02368903 23.25 0.03710938 C27.43659419 0.0540991 31.62306776 0.05792365 35.80969238 0.05716419 C39.02670443 0.05743604 42.24369009 0.06291964 45.46069336 0.07016563 C47.00447388 0.07334928 48.54825739 0.075319 50.09204102 0.07605934 C52.24891257 0.07822613 54.40565596 0.08697769 56.5625 0.09765625 C58.40424805 0.10337395 58.40424805 0.10337395 60.28320312 0.10920715 C63.28125 0.24291992 63.28125 0.24291992 66.28125 1.24291992 C66.58487113 5.94409472 65.93384924 8.57289889 63.52734375 12.60229492 C62.92720459 13.62331299 62.32706543 14.64433105 61.70874023 15.69628906 C61.05204346 16.78417725 60.39534668 17.87206543 59.71875 18.99291992 C58.69489122 20.72470462 57.67105472 22.45650299 56.64857483 24.18910217 C55.58182979 25.99355228 54.50972647 27.79475014 53.4375 29.59594727 C51.30847718 33.1835716 49.22603367 36.79664981 47.15625 40.41870117 C46.82383804 40.9996756 46.49142609 41.58065002 46.14894104 42.17922974 C44.55828908 44.96014306 42.96965875 47.74219899 41.38256836 50.52514648 C37.89725903 56.59050254 34.25392074 62.48404493 30.28125 68.24291992 C27.18937769 67.94470743 25.71612937 67.75571463 23.66650391 65.33886719 C23.20163574 64.50411865 22.73676758 63.66937012 22.2578125 62.80932617 C21.71898437 61.8626709 21.18015625 60.91601562 20.625 59.94067383 C20.0578125 58.90604004 19.490625 57.87140625 18.90625 56.80541992 C17.66932798 54.61658554 16.43234669 52.42778466 15.1953125 50.23901367 C14.55625977 49.09416504 13.91720703 47.94931641 13.25878906 46.76977539 C10.63108082 42.06849592 7.93284898 37.40832192 5.23583984 32.74658203 C3.9650163 30.54986369 2.69695825 28.35154234 1.43212891 26.15136719 C0.55306885 24.62274048 0.55306885 24.62274048 -0.34375 23.06323242 C-0.90449219 22.08515625 -1.46523438 21.10708008 -2.04296875 20.09936523 C-3.16035169 18.19473523 -4.30911637 16.30817317 -5.48828125 14.44116211 C-6.03871094 13.56878906 -6.58914062 12.69641602 -7.15625 11.79760742 C-7.64996094 11.03689941 -8.14367187 10.27619141 -8.65234375 9.49243164 C-9.91436715 6.83027881 -10.15111021 5.15345715 -9.71875 2.24291992 C-6.0688693 -0.19033388 -4.34787661 -0.00504613 0 0 Z " fill="#FF7300" transform="translate(258.71875,353.757080078125)"/>
<path d="M0 0 C0.70894409 -0.00335861 1.41788818 -0.00671722 2.14831543 -0.01017761 C4.50327279 -0.01971449 6.85815927 -0.02163209 9.21313477 -0.02270508 C10.84359263 -0.02591578 12.4740502 -0.0292797 14.10450745 -0.03279114 C17.52687244 -0.03878927 20.94921215 -0.04063034 24.37158203 -0.04003906 C28.76463334 -0.0399374 33.15752315 -0.05359026 37.55053616 -0.07081127 C40.91934458 -0.08191056 44.28811371 -0.08395891 47.65693855 -0.08342934 C49.27691263 -0.08461256 50.89688762 -0.0890534 52.5168438 -0.0967617 C54.77957456 -0.10652 57.04195147 -0.10370026 59.3046875 -0.09765625 C60.59406723 -0.09908127 61.88344696 -0.10050629 63.2118988 -0.10197449 C66.21704102 0.14526367 66.21704102 0.14526367 68.21704102 2.14526367 C67.86664994 6.02421204 66.45101139 8.90267622 64.54907227 12.25854492 C63.99219727 13.24781982 63.43532227 14.23709473 62.86157227 15.25634766 C62.25700195 16.31281494 61.65243164 17.36928223 61.02954102 18.45776367 C60.40821289 19.55483643 59.78688477 20.65190918 59.14672852 21.78222656 C52.60652512 33.29584669 45.95243647 44.74481299 39.21704102 56.14526367 C38.66661133 57.08257324 38.11618164 58.01988281 37.54907227 58.9855957 C37.01668945 59.8852002 36.48430664 60.78480469 35.93579102 61.71166992 C35.46077148 62.51677002 34.98575195 63.32187012 34.49633789 64.15136719 C33.21704102 66.14526367 33.21704102 66.14526367 31.21704102 68.14526367 C28.79199219 68.08081055 28.79199219 68.08081055 26.21704102 67.14526367 C24.52294922 65.0065918 24.52294922 65.0065918 23.01782227 62.17651367 C22.45361572 61.13897949 21.88940918 60.10144531 21.30810547 59.0324707 C20.42771606 57.35580322 20.42771606 57.35580322 19.52954102 55.64526367 C18.28097773 53.33979752 17.03097344 51.03511119 15.77954102 48.73120117 C15.17110352 47.60037109 14.56266602 46.46954102 13.93579102 45.30444336 C11.7232184 41.23758403 9.40067611 37.24608676 7.02954102 33.27026367 C6.6434668 32.61509766 6.25739258 31.95993164 5.85961914 31.28491211 C3.64312883 27.52499219 1.39203486 23.78794521 -0.87670898 20.05932617 C-1.90823058 18.33813475 -2.93948574 16.61678361 -3.97045898 14.89526367 C-4.46505615 14.09620605 -4.95965332 13.29714844 -5.46923828 12.47387695 C-8.81509182 6.84667754 -8.81509182 6.84667754 -8.64624023 3.16088867 C-6.84992286 -1.03322791 -4.31798051 0.01277314 0 0 Z " fill="#FF7200" transform="translate(131.782958984375,140.854736328125)"/>
<path d="M0 0 C0.72030396 -0.00175232 1.44060791 -0.00350464 2.18273926 -0.00531006 C4.57497534 -0.00972835 6.9671381 -0.00679068 9.359375 -0.00341797 C11.01464858 -0.00409101 12.66992207 -0.00506105 14.32519531 -0.00631714 C17.79883767 -0.00779408 21.27245437 -0.00563968 24.74609375 -0.00097656 C29.20869998 0.00472073 33.67124608 0.0014417 38.1338501 -0.00454903 C41.5532273 -0.00815474 44.97259015 -0.00701601 48.39196777 -0.00442123 C50.03788256 -0.00375199 51.68379863 -0.00458029 53.32971191 -0.00690079 C55.62609331 -0.00942749 57.92237599 -0.0055865 60.21875 0 C61.52811523 0.00079559 62.83748047 0.00159119 64.18652344 0.00241089 C67.109375 0.12939453 67.109375 0.12939453 68.109375 1.12939453 C67.97672468 8.13143651 64.55528466 13.0907943 60.984375 18.94189453 C59.70992806 21.074104 58.43652829 23.20693965 57.1640625 25.34033203 C56.49987305 26.44731445 55.83568359 27.55429688 55.15136719 28.69482422 C53.08634955 32.16812266 51.06130633 35.66126296 49.0546875 39.16845703 C48.5574971 40.0366935 48.5574971 40.0366935 48.05026245 40.92247009 C46.45117861 43.7168577 44.85518501 46.51298621 43.26123047 49.31030273 C41.56634935 52.26388575 39.84607905 55.20024244 38.109375 58.12939453 C37.5834375 59.03705566 37.0575 59.9447168 36.515625 60.87988281 C36.0103125 61.70601074 35.505 62.53213867 34.984375 63.38330078 C34.54867187 64.10976807 34.11296875 64.83623535 33.6640625 65.5847168 C32.109375 67.12939453 32.109375 67.12939453 29.56396484 67.53881836 C27.109375 67.12939453 27.109375 67.12939453 24.9609375 64.32470703 C24.19999806 62.97836363 23.45949421 61.6203636 22.734375 60.25439453 C21.86110076 58.6916577 20.98737287 57.12917432 20.11328125 55.56689453 C19.63777832 54.70193359 19.16227539 53.83697266 18.67236328 52.94580078 C16.37035126 48.79772039 13.9864733 44.69819705 11.60693359 40.59423828 C9.6732366 37.2567446 7.75223014 33.91216826 5.83203125 30.56689453 C3.48066763 26.48137742 1.0968463 22.41928391 -1.33203125 18.37939453 C-2.11139038 17.07204346 -2.11139038 17.07204346 -2.90649414 15.73828125 C-3.87078167 14.12442021 -4.84472692 12.5162767 -5.82983398 10.91503906 C-6.25208252 10.20460449 -6.67433105 9.49416992 -7.109375 8.76220703 C-7.47998047 8.1526416 -7.85058594 7.54307617 -8.23242188 6.91503906 C-9.07911517 4.61803803 -8.72258568 3.39558309 -7.890625 1.12939453 C-5.97856198 -0.78266849 -2.52936116 0.00153688 0 0 Z " fill="#FF7200" transform="translate(174.890625,210.87060546875)"/>
<path d="M0 0 C0.72030396 -0.00175232 1.44060791 -0.00350464 2.18273926 -0.00531006 C4.57497534 -0.00972835 6.9671381 -0.00679068 9.359375 -0.00341797 C11.01464858 -0.00409101 12.66992207 -0.00506105 14.32519531 -0.00631714 C17.79883767 -0.00779408 21.27245437 -0.00563968 24.74609375 -0.00097656 C29.20869998 0.00472073 33.67124608 0.0014417 38.1338501 -0.00454903 C41.5532273 -0.00815474 44.97259015 -0.00701601 48.39196777 -0.00442123 C50.03788256 -0.00375199 51.68379863 -0.00458029 53.32971191 -0.00690079 C55.62609331 -0.00942749 57.92237599 -0.0055865 60.21875 0 C61.52811523 0.00079559 62.83748047 0.00159119 64.18652344 0.00241089 C67.109375 0.12939453 67.109375 0.12939453 68.109375 1.12939453 C67.72277122 6.19557148 66.55878195 9.73104378 64.00390625 14.09423828 C63.03275879 15.77223511 63.03275879 15.77223511 62.04199219 17.48413086 C61.33551411 18.6785201 60.62880316 19.87277163 59.921875 21.06689453 C59.19981715 22.30547154 58.4788013 23.54465655 57.75878906 24.78442383 C55.91477937 27.95395469 54.05793192 31.11575998 52.19805908 34.27600098 C50.48132169 37.19860273 48.77805512 40.12893907 47.07421875 43.05908203 C44.7220354 47.10292687 42.3645404 51.14354474 40 55.18017578 C37.67711239 59.14881872 35.38133969 63.13139841 33.109375 67.12939453 C31.129375 67.12939453 29.149375 67.12939453 27.109375 67.12939453 C25.58510021 64.48731823 24.06083684 61.84523536 22.53662109 59.203125 C21.19729014 56.88172757 19.85780063 54.56042245 18.51806641 52.23925781 C15.33278148 46.72006349 12.14871491 41.20019198 8.97285461 35.67556763 C7.96030718 33.91430714 6.94716113 32.15339236 5.93383789 30.39257812 C4.66230775 28.18264759 3.39190872 25.97206574 2.12280273 23.76074219 C-0.79900275 18.68553989 -3.74876433 13.66882265 -7.00195312 8.79760742 C-8.38389461 6.2034299 -8.3077798 3.97995234 -7.890625 1.12939453 C-5.97856198 -0.78266849 -2.52936116 0.00153688 0 0 Z " fill="#FF7200" transform="translate(89.890625,210.87060546875)"/>
<path d="M0 0 C1.07804649 -0.00503792 1.07804649 -0.00503792 2.1778717 -0.01017761 C4.56529445 -0.01971471 6.95264726 -0.0216321 9.34008789 -0.02270508 C10.992966 -0.02591576 12.64584382 -0.02927968 14.29872131 -0.03279114 C17.76816466 -0.03878933 21.23758308 -0.04063033 24.70703125 -0.04003906 C29.16061581 -0.0399374 33.61404107 -0.05359035 38.06758785 -0.07081127 C41.48271932 -0.08191029 44.89781201 -0.08395892 48.31295967 -0.08342934 C49.95526237 -0.0846126 51.59756596 -0.08905364 53.239851 -0.0967617 C55.53371321 -0.10651946 57.82722635 -0.10370046 60.12109375 -0.09765625 C61.42823837 -0.09908127 62.735383 -0.10050629 64.08213806 -0.10197449 C67.12524414 0.14526367 67.12524414 0.14526367 69.12524414 2.14526367 C68.77936112 5.9640209 67.43837114 8.70979173 65.49243164 11.96948242 C64.94071289 12.90324707 64.38899414 13.83701172 63.82055664 14.79907227 C63.21985352 15.80019043 62.61915039 16.80130859 62.00024414 17.83276367 C60.72603501 19.9846507 59.45262613 22.13701174 58.17993164 24.28979492 C57.51574219 25.40950684 56.85155273 26.52921875 56.16723633 27.68286133 C52.13802155 34.49605947 48.21953763 41.37420107 44.27709961 48.23779297 C43.11792636 50.25177287 41.95298339 52.26244615 40.78149414 54.26928711 C39.66773878 56.203255 38.58467312 58.15519077 37.53149414 60.12280273 C37.02618164 61.04029297 36.52086914 61.9577832 36.00024414 62.90307617 C35.56454102 63.72179199 35.12883789 64.54050781 34.67993164 65.3840332 C33.12524414 67.14526367 33.12524414 67.14526367 30.62915039 67.65039062 C28.12524414 67.14526367 28.12524414 67.14526367 26.53540039 65.54785156 C26.09067383 64.80784912 25.64594727 64.06784668 25.18774414 63.30541992 C24.68243164 62.47929199 24.17711914 61.65316406 23.65649414 60.80200195 C22.89852539 59.4869165 22.89852539 59.4869165 22.12524414 58.14526367 C21.64055664 57.31623535 21.15586914 56.48720703 20.65649414 55.63305664 C19.12110415 52.96296854 17.62025431 50.27565366 16.12524414 47.58276367 C11.32764298 39.01571921 6.45520235 30.49731941 1.50024414 22.02026367 C0.90856445 21.00762451 0.31688477 19.99498535 -0.29272461 18.95166016 C-3.35755893 13.69464268 -3.35755893 13.69464268 -6.5402832 8.5090332 C-8.06820791 5.80259943 -8.2147732 4.20541974 -7.87475586 1.14526367 C-5.96434666 -0.76514553 -2.52890554 0.0073791 0 0 Z " fill="#FF7200" transform="translate(47.874755859375,281.854736328125)"/>
<path d="M0 0 C24.75 0 49.5 0 75 0 C76.08379066 5.4189533 75.96777589 5.89735525 73.38671875 10.359375 C72.80325684 11.38393799 72.21979492 12.40850098 71.61865234 13.46411133 C70.98137207 14.54845459 70.3440918 15.63279785 69.6875 16.75 C69.04248535 17.87237061 68.3974707 18.99474121 67.73291016 20.15112305 C65.83631676 23.44268659 63.92073338 26.72248003 62 30 C61.08667219 31.57388963 60.17383602 33.14806477 59.26171875 34.72265625 C57.69656736 37.41487993 56.11203067 40.09416835 54.51171875 42.765625 C52.58959384 45.97821973 50.73557689 49.22467107 48.89453125 52.484375 C47.82572964 54.34387003 46.75672224 56.2032468 45.6875 58.0625 C45.19556152 58.95106689 44.70362305 59.83963379 44.19677734 60.75512695 C43.72320801 61.56941162 43.24963867 62.38369629 42.76171875 63.22265625 C42.1423645 64.31719116 42.1423645 64.31719116 41.51049805 65.43383789 C40 67 40 67 37.56665039 67.58959961 C35 67 35 67 33.03417969 64.63085938 C32.41961914 63.54611328 31.80505859 62.46136719 31.171875 61.34375 C30.66306793 60.46426697 30.66306793 60.46426697 30.14398193 59.5670166 C29.43297011 58.3331935 28.73023809 57.09456605 28.03540039 55.8515625 C26.43839666 52.99570862 24.78219755 50.17416314 23.140625 47.34375 C21.49700573 44.46048886 19.85893677 41.57415079 18.22219849 38.6869812 C17.17592901 36.8418446 16.12914374 34.99700207 15.08203125 33.15234375 C14.56770287 32.24554115 14.56770287 32.24554115 14.04298401 31.32041931 C11.82418578 27.41865811 9.55845683 23.54803023 7.26171875 19.69140625 C6.69743164 18.73492187 6.13314453 17.7784375 5.55175781 16.79296875 C4.5015194 15.01652192 3.44020874 13.24655909 2.36621094 11.484375 C1.90375977 10.69675781 1.44130859 9.90914063 0.96484375 9.09765625 C0.5587085 8.42226807 0.15257324 7.74687988 -0.26586914 7.05102539 C-1 5 -1 5 0 0 Z " fill="#FF7200" transform="translate(125,282)"/>
<path d="M0 0 C0.72030396 -0.00175232 1.44060791 -0.00350464 2.18273926 -0.00531006 C4.57497534 -0.00972835 6.9671381 -0.00679068 9.359375 -0.00341797 C11.01464858 -0.00409101 12.66992207 -0.00506105 14.32519531 -0.00631714 C17.79883767 -0.00779408 21.27245437 -0.00563968 24.74609375 -0.00097656 C29.20869998 0.00472073 33.67124608 0.0014417 38.1338501 -0.00454903 C41.5532273 -0.00815474 44.97259015 -0.00701601 48.39196777 -0.00442123 C50.03788256 -0.00375199 51.68379863 -0.00458029 53.32971191 -0.00690079 C55.62609331 -0.00942749 57.92237599 -0.0055865 60.21875 0 C61.52811523 0.00079559 62.83748047 0.00159119 64.18652344 0.00241089 C67.109375 0.12939453 67.109375 0.12939453 68.109375 1.12939453 C68.50842918 5.21297545 67.67137291 7.47808348 65.57421875 10.95361328 C65.01927734 11.88737793 64.46433594 12.82114258 63.89257812 13.78320312 C63.28349609 14.78432129 62.67441406 15.78543945 62.046875 16.81689453 C60.76342252 18.96870149 59.48090374 21.12106558 58.19921875 23.27392578 C57.1935083 24.95349365 57.1935083 24.95349365 56.16748047 26.66699219 C52.74422587 32.40505183 49.43449071 38.20914513 46.109375 44.00439453 C33.79794452 65.44082501 33.79794452 65.44082501 32.109375 67.12939453 C29.73583984 67.46289062 29.73583984 67.46289062 27.109375 67.12939453 C25.49462891 65.33886719 25.49462891 65.33886719 24.0859375 62.79345703 C23.54718994 61.84374023 23.00844238 60.89402344 22.45336914 59.91552734 C21.88610107 58.87235352 21.31883301 57.82917969 20.734375 56.75439453 C19.49624417 54.55378906 18.2579574 52.35327132 17.01953125 50.15283203 C16.38031738 49.00137695 15.74110352 47.84992188 15.08251953 46.66357422 C11.85422063 40.85909319 8.50208145 35.12578095 5.171875 29.37939453 C3.40153498 26.30653929 1.63241417 23.23309975 -0.12841797 20.15478516 C-1.3646028 18.03247948 -2.63214588 15.92827684 -3.92236328 13.83837891 C-4.57317871 12.77425781 -5.22399414 11.71013672 -5.89453125 10.61376953 C-6.49209229 9.65696289 -7.08965332 8.70015625 -7.70532227 7.71435547 C-8.890625 5.12939453 -8.890625 5.12939453 -8.64038086 2.84912109 C-6.91793411 -1.10168155 -3.99060706 0.00242476 0 0 Z " fill="#FF7200" transform="translate(213.890625,281.87060546875)"/>
</svg>
