<?xml version="1.0" encoding="UTF-8"?>
<svg version="1.1" xmlns="http://www.w3.org/2000/svg" width="694" height="189">
<path d="M0 0 C1.24170708 -0.0049926 1.24170708 -0.0049926 2.50849915 -0.01008606 C4.26632124 -0.01516106 6.02415301 -0.01749421 7.78198242 -0.01733398 C10.45963729 -0.01950799 13.13687193 -0.03762266 15.81445312 -0.05664062 C17.52213401 -0.05957701 19.22981685 -0.06156016 20.9375 -0.0625 C21.73459885 -0.06968552 22.53169769 -0.07687103 23.35295105 -0.08427429 C27.90903596 -0.0657599 31.50349557 0.47197117 35.80078125 2.16796875 C36.51878906 2.34457031 37.23679687 2.52117188 37.9765625 2.703125 C51.35782385 6.00563009 63.79984519 13.89290708 73.80078125 23.16796875 C74.99960937 24.26431641 74.99960937 24.26431641 76.22265625 25.3828125 C82.0896745 30.98404301 89.28602253 37.89359922 90.80078125 46.16796875 C91.46078125 46.16796875 92.12078125 46.16796875 92.80078125 46.16796875 C99.98803487 60.60364411 103.66205235 73.69342982 103.45263672 89.73144531 C103.42578536 92.1675958 103.45256687 94.59914251 103.484375 97.03515625 C103.51709492 112.07531938 99.51669904 124.67897643 92.80078125 138.16796875 C92.14078125 138.16796875 91.48078125 138.16796875 90.80078125 138.16796875 C90.55457031 139.04839844 90.30835938 139.92882812 90.0546875 140.8359375 C83.6009002 157.9857212 63.69834586 170.71193124 47.81787109 178.31054688 C43.25091296 180.25186338 38.47524994 181.3632001 33.65234375 182.4765625 C30.91751337 182.87771198 30.91751337 182.87771198 29.80078125 184.16796875 C27.05926735 184.28153839 24.34393394 184.3321569 21.6015625 184.3359375 C20.35985542 184.3409301 20.35985542 184.3409301 19.09306335 184.34602356 C17.33524126 184.35109856 15.57740949 184.35343171 13.81958008 184.35327148 C11.14192521 184.35544549 8.46469057 184.37356016 5.78710938 184.39257812 C4.07942849 184.39551451 2.37174565 184.39749766 0.6640625 184.3984375 C-0.13303635 184.40562302 -0.93013519 184.41280853 -1.75138855 184.42021179 C-6.30747346 184.4016974 -9.90193307 183.86396633 -14.19921875 182.16796875 C-14.91722656 181.99136719 -15.63523437 181.81476563 -16.375 181.6328125 C-29.75626135 178.33030741 -42.19828269 170.44303042 -52.19921875 161.16796875 C-53.39804687 160.07162109 -53.39804687 160.07162109 -54.62109375 158.953125 C-60.488112 153.35189449 -67.68446003 146.44233828 -69.19921875 138.16796875 C-69.85921875 138.16796875 -70.51921875 138.16796875 -71.19921875 138.16796875 C-78.38647237 123.73229339 -82.06048985 110.64250768 -81.85107422 94.60449219 C-81.82422286 92.1683417 -81.85100437 89.73679499 -81.8828125 87.30078125 C-81.91553242 72.26061812 -77.91513654 59.65696107 -71.19921875 46.16796875 C-70.53921875 46.16796875 -69.87921875 46.16796875 -69.19921875 46.16796875 C-68.95300781 45.28753906 -68.70679687 44.40710937 -68.453125 43.5 C-61.9993377 26.3502163 -42.09678336 13.62400626 -26.21630859 6.02539062 C-21.64935046 4.08407412 -16.87368744 2.9727374 -12.05078125 1.859375 C-4.40723069 0.00607575 -4.40723069 0.00607575 0 0 Z " fill="#00C798" transform="translate(83.19921875,2.83203125)"/>
<path d="M0 0 C1.24170708 -0.0049926 1.24170708 -0.0049926 2.50849915 -0.01008606 C4.26632124 -0.01516106 6.02415301 -0.01749421 7.78198242 -0.01733398 C10.45963729 -0.01950799 13.13687193 -0.03762266 15.81445312 -0.05664062 C17.52213401 -0.05957701 19.22981685 -0.06156016 20.9375 -0.0625 C21.73459885 -0.06968552 22.53169769 -0.07687103 23.35295105 -0.08427429 C27.90903596 -0.0657599 31.50349557 0.47197117 35.80078125 2.16796875 C36.51878906 2.34457031 37.23679687 2.52117188 37.9765625 2.703125 C51.35782385 6.00563009 63.79984519 13.89290708 73.80078125 23.16796875 C74.99960937 24.26431641 74.99960937 24.26431641 76.22265625 25.3828125 C82.05955456 30.95528756 88.20706483 37.3868195 90.80078125 45.16796875 C87.95990857 48.03387624 85.11551989 50.89624572 82.26806641 53.75561523 C81.30326666 54.72539148 80.3393723 55.69606945 79.37646484 56.66772461 C74.33318121 61.75561585 69.26158582 66.70959841 63.8203125 71.36889648 C59.62634515 75.10503592 55.74091896 79.16813199 51.80078125 83.16796875 C46.52700993 88.5216457 41.27959572 93.78833576 35.49829102 98.59765625 C33.64908106 100.30830179 32.22329262 102.13760691 30.73828125 104.16796875 C29.28125 105.90625 29.28125 105.90625 27.80078125 107.16796875 C22.6943487 107.46257063 18.25291081 105.28922674 13.60546875 103.33984375 C10.52592406 102.05312591 7.4194014 100.85671337 4.30078125 99.66796875 C-1.22019357 97.55148719 -6.71501104 95.37762525 -12.19921875 93.16796875 C-13.96987297 92.45918781 -15.74070533 91.7508517 -17.51171875 91.04296875 C-19.95105983 90.06723232 -22.35817752 89.09422751 -24.7421875 87.98828125 C-27.56740412 87.04504518 -28.47519379 87.05335816 -31.19921875 88.16796875 C-33.12750776 89.2363837 -35.01932634 90.37136532 -36.88671875 91.54296875 C-37.72614014 92.06818115 -37.72614014 92.06818115 -38.58251953 92.60400391 C-40.46001633 93.78389633 -42.33049589 94.97423139 -44.19921875 96.16796875 C-44.86743652 96.59464844 -45.5356543 97.02132812 -46.22412109 97.4609375 C-52.69761618 101.60543283 -59.1591496 105.76548266 -65.51171875 110.09375 C-66.19572754 110.55797363 -66.87973633 111.02219727 -67.58447266 111.50048828 C-68.8826883 112.38454924 -70.17685571 113.27459304 -71.46630859 114.17138672 C-75.86757669 117.16796875 -75.86757669 117.16796875 -79.19921875 117.16796875 C-81.09514326 112.35636729 -81.53373824 107.9474138 -81.5703125 102.83203125 C-81.57934097 102.03501801 -81.58836945 101.23800476 -81.59767151 100.4168396 C-81.61213376 98.73089316 -81.62105071 97.04489111 -81.62475586 95.35888672 C-81.63652472 92.83458629 -81.68563499 90.31283859 -81.73632812 87.7890625 C-81.88910073 72.46059553 -78.05379607 59.93546021 -71.19921875 46.16796875 C-70.53921875 46.16796875 -69.87921875 46.16796875 -69.19921875 46.16796875 C-68.95300781 45.28753906 -68.70679687 44.40710937 -68.453125 43.5 C-61.9993377 26.3502163 -42.09678336 13.62400626 -26.21630859 6.02539062 C-21.64935046 4.08407412 -16.87368744 2.9727374 -12.05078125 1.859375 C-4.40723069 0.00607575 -4.40723069 0.00607575 0 0 Z " fill="#5267FE" transform="translate(83.19921875,2.83203125)"/>
<path d="M0 0 C3 1 3 1 4.2109375 2.94140625 C6.73968759 8.63533682 8.93358314 14.39589873 10.875 20.3125 C11.1023584 20.981604 11.3297168 21.65070801 11.56396484 22.34008789 C12.90094964 26.59755217 13.42348234 29.73543515 12 34 C9.859375 36.484375 9.859375 36.484375 7 39 C5.94030933 39.98179199 4.88315405 40.96632537 3.828125 41.953125 C2.96779663 42.74577759 2.96779663 42.74577759 2.09008789 43.55444336 C-5.12998098 50.20740585 -12.1321535 57.0462226 -19.01269531 64.04980469 C-22.92466447 68.01107642 -26.94418416 71.74991536 -31.16333008 75.3815918 C-34.60477357 78.41406939 -37.71853128 81.75562615 -40.8984375 85.05859375 C-43 87 -43 87 -45 87 C-45.25136719 87.57621094 -45.50273438 88.15242188 -45.76171875 88.74609375 C-47.15956034 91.29043002 -48.75401021 93.01975392 -50.8125 95.0625 C-51.81216797 96.06990234 -51.81216797 96.06990234 -52.83203125 97.09765625 C-57.04044118 100.79044118 -57.04044118 100.79044118 -60 102 C-62.70193292 101.36225757 -64.80531596 100.65801443 -67.3125 99.5625 C-68.7458653 98.97990636 -70.17946573 98.39789097 -71.61328125 97.81640625 C-72.34240723 97.51234863 -73.0715332 97.20829102 -73.82275391 96.89501953 C-77.18438785 95.51312336 -80.59119844 94.25984784 -84 93 C-85.31926507 92.50588773 -86.63827436 92.01109199 -87.95703125 91.515625 C-90.76636639 90.46203836 -93.57636123 89.41023134 -96.38671875 88.359375 C-97.10666016 88.08996094 -97.82660156 87.82054687 -98.56835938 87.54296875 C-99.94058433 87.02949103 -101.31296993 86.51644232 -102.68554688 86.00390625 C-105.39727002 84.98876273 -108.07142353 83.96743169 -110.70703125 82.765625 C-113.40608404 81.86440805 -114.38812349 81.93081079 -117 83 C-118.72010353 83.98689895 -120.40497998 85.03626078 -122.0625 86.125 C-123.03445312 86.75792969 -124.00640625 87.39085937 -125.0078125 88.04296875 C-125.99523437 88.68878906 -126.98265625 89.33460938 -128 90 C-129.81109228 91.14805707 -131.62356836 92.2939344 -133.4375 93.4375 C-139.3539192 97.19938504 -145.18061283 101.08994056 -151 105 C-154.2316843 101.84236411 -156.92406338 99.04261342 -159 95 C-159 94.34 -159 93.68 -159 93 C-159.66 93 -160.32 93 -161 93 C-168 77.98473282 -168 77.98473282 -168 72 C-165.54980057 70.10791859 -163.2010474 68.52605109 -160.5625 66.9375 C-158.9945471 65.96002762 -157.4268457 64.9821517 -155.859375 64.00390625 C-155.05177734 63.50648926 -154.24417969 63.00907227 -153.41210938 62.49658203 C-150.39218365 60.62288317 -147.41050356 58.69435109 -144.43237305 56.75512695 C-142.32574801 55.38362502 -140.21198754 54.02364473 -138.09765625 52.6640625 C-135.37069174 50.90377236 -132.67495641 49.1060306 -129.99609375 47.2734375 C-129.36340576 46.84756348 -128.73071777 46.42168945 -128.07885742 45.98291016 C-126.8949785 45.18480729 -125.71871669 44.37523711 -124.55200195 43.55224609 C-122.04363171 41.87693514 -120.49725597 40.97039239 -117.44140625 41.15234375 C-116.63574219 41.43207031 -115.83007812 41.71179688 -115 42 C-114.13761719 42.27457031 -113.27523437 42.54914063 -112.38671875 42.83203125 C-108.11581635 44.38340101 -103.95914062 45.93724276 -99.9375 48.0625 C-96.37925777 49.91679525 -92.82964376 51.00039448 -88.9765625 52.0859375 C-83.21950469 53.85385289 -77.62210573 56.08802824 -71.99902344 58.23828125 C-68.67129618 59.50629652 -65.33529636 60.75204947 -62 62 C-61.61328125 61.12601563 -61.61328125 61.12601563 -61.21875 60.234375 C-59.90165983 57.8197097 -58.44911616 56.18259823 -56.5 54.25 C-55.8915625 53.63640625 -55.283125 53.0228125 -54.65625 52.390625 C-53 51 -53 51 -51 51 C-50.67 50.01 -50.34 49.02 -50 48 C-48.50390625 46.52734375 -48.50390625 46.52734375 -46.5625 44.9375 C-41.41800318 40.57247239 -36.73193809 35.80363413 -32 31 C-26.77887836 25.69977046 -21.55152833 20.518872 -15.90234375 15.67529297 C-12.6215697 12.78608975 -9.56846863 9.67376916 -6.5 6.5625 C-5.86835938 5.92634766 -5.23671875 5.29019531 -4.5859375 4.63476562 C-3.05494226 3.09217194 -1.52712333 1.54642686 0 0 Z " fill="#00EAB4" transform="translate(173,48)"/>
<path d="M0 0 C0.93005859 0.88171875 0.93005859 0.88171875 1.87890625 1.78125 C1.87890625 6.5765137 0.88897712 7.45679084 -2.12109375 11.03125 C-2.86359375 11.92328125 -3.60609375 12.8153125 -4.37109375 13.734375 C-4.94859375 14.40984375 -5.52609375 15.0853125 -6.12109375 15.78125 C-9.81755919 15.06867835 -12.85068338 13.49933019 -16.18359375 11.78125 C-24.44254971 7.5343703 -32.61669169 6.05673994 -41.83203125 8.5 C-51.97806482 12.79388452 -55.79664023 18.8927602 -60.12109375 28.78125 C-62.77955806 36.75664294 -61.62275655 45.62527392 -58.4453125 53.2734375 C-54.01354624 61.66633998 -47.93803912 65.84226821 -39.12109375 68.78125 C-28.48228292 69.64418946 -20.85174377 68.64657501 -11.12109375 63.78125 C-10.79109375 58.50125 -10.46109375 53.22125 -10.12109375 47.78125 C-17.71109375 47.78125 -25.30109375 47.78125 -33.12109375 47.78125 C-33.12109375 42.83125 -33.12109375 37.88125 -33.12109375 32.78125 C-20.25109375 32.78125 -7.38109375 32.78125 5.87890625 32.78125 C6.04390625 39.0925 6.20890625 45.40375 6.37890625 51.90625 C6.45173828 53.8877002 6.52457031 55.86915039 6.59960938 57.91064453 C6.86738462 70.29107057 6.86738462 70.29107057 4.22949219 74.26782227 C2.16009689 75.8436159 0.2930523 76.83528954 -2.12109375 77.78125 C-2.9615625 78.30074219 -3.80203125 78.82023437 -4.66796875 79.35546875 C-18.649363 86.42053499 -34.23021192 88.18935726 -49.37109375 83.828125 C-62.59042728 78.79576508 -71.34550863 69.46029856 -77.30859375 56.86328125 C-81.93291591 45.0134557 -81.08955481 31.67165786 -77.12109375 19.78125 C-71.47817464 7.51097729 -62.52355048 -1.24221692 -50.15625 -6.47265625 C-33.05720799 -12.53869464 -15.15934426 -9.70904145 0 0 Z " fill="#444444" transform="translate(316.12109375,56.21875)"/>
<path d="M0 0 C5.61 0 11.22 0 17 0 C18.23056888 3.97873759 19.4594704 7.95797859 20.6875 11.9375 C21.02716797 13.03513672 21.36683594 14.13277344 21.71679688 15.26367188 C24.5603656 24.48533867 27.29350337 33.73731511 30 43 C30.34780518 41.94611084 30.69561035 40.89222168 31.05395508 39.80639648 C32.3535848 35.87112031 33.65727725 31.93719985 34.9621582 28.00366211 C35.52477945 26.3057833 36.08631993 24.60754595 36.64672852 22.90893555 C37.45560691 20.45785425 38.2684512 18.00811787 39.08203125 15.55859375 C39.32903275 14.80726669 39.57603424 14.05593964 39.83052063 13.28184509 C41.34301031 8.74342415 43.05711071 4.37213088 45 0 C49.62 0 54.24 0 59 0 C62.26591489 7.82140832 64.98724933 15.76980521 67.57421875 23.83422852 C68.25716095 25.95978741 68.94859978 28.08246132 69.640625 30.20507812 C70.07863387 31.56233588 70.51615227 32.91975205 70.953125 34.27734375 C71.34661133 35.49671631 71.74009766 36.71608887 72.14550781 37.97241211 C73 41 73 41 73 44 C73.66 44 74.32 44 75 44 C75.11335693 43.02603271 75.22671387 42.05206543 75.34350586 41.04858398 C75.97656478 36.63928953 77.20848775 32.47671208 78.50390625 28.22265625 C78.7466478 27.41130722 78.98938934 26.59995819 79.23948669 25.76402283 C80.0091361 23.19541295 80.78569876 20.62895496 81.5625 18.0625 C82.08835029 16.31198698 82.61374558 14.5613372 83.13867188 12.81054688 C84.41968323 8.5384853 85.71003936 4.26940845 87 0 C92.61 0 98.22 0 104 0 C102.58768748 6.90242256 100.65915 13.49102254 98.4453125 20.17578125 C98.10249237 21.22219284 97.75967224 22.26860443 97.40646362 23.34672546 C96.31664043 26.66997889 95.22089587 29.99124484 94.125 33.3125 C93.39674931 35.53047222 92.6688813 37.74857013 91.94140625 39.96679688 C88.65251531 49.98624514 85.33878632 59.99706282 82 70 C77.05 70 72.1 70 67 70 C63.73408511 62.17859168 61.01275067 54.23019479 58.42578125 46.16577148 C57.74283905 44.04021259 57.05140022 41.91753868 56.359375 39.79492188 C55.92136613 38.43766412 55.48384773 37.08024795 55.046875 35.72265625 C54.65338867 34.50328369 54.25990234 33.28391113 53.85449219 32.02758789 C53 29 53 29 53 26 C52.34 26 51.68 26 51 26 C50.88834503 26.55066635 50.77669006 27.1013327 50.66165161 27.66868591 C49.51292308 33.10692785 48.01768043 38.29347408 46.1796875 43.53515625 C45.91616486 44.29928329 45.65264221 45.06341034 45.38113403 45.85069275 C44.55036362 48.25625285 43.71281809 50.65938662 42.875 53.0625 C42.30553688 54.70752565 41.73652246 56.3527067 41.16796875 57.99804688 C39.78381833 62.00051032 38.39359276 66.00081494 37 70 C32.05 70 27.1 70 22 70 C19.48683249 63.46038087 17.24666893 56.85007973 15.05859375 50.1953125 C14.69024918 49.07615448 14.3219046 47.95699646 13.94239807 46.80392456 C13.16739715 44.44594239 12.39340351 42.08762895 11.62036133 39.72900391 C10.44300453 36.14177149 9.25769684 32.55722714 8.07226562 28.97265625 C7.31721383 26.67203723 6.56264071 24.37126105 5.80859375 22.0703125 C5.45647324 21.00958527 5.10435272 19.94885803 4.74156189 18.85598755 C2.70607112 12.60820092 1.16102919 6.46917579 0 0 Z " fill="#444444" transform="translate(585,71)"/>
<path d="M0 0 C5.61 0 11.22 0 17 0 C18.23056888 3.97873759 19.4594704 7.95797859 20.6875 11.9375 C21.02716797 13.03513672 21.36683594 14.13277344 21.71679688 15.26367188 C24.5603656 24.48533867 27.29350337 33.73731511 30 43 C30.34780518 41.94611084 30.69561035 40.89222168 31.05395508 39.80639648 C32.3535848 35.87112031 33.65727725 31.93719985 34.9621582 28.00366211 C35.52477945 26.3057833 36.08631993 24.60754595 36.64672852 22.90893555 C37.45560691 20.45785425 38.2684512 18.00811787 39.08203125 15.55859375 C39.32903275 14.80726669 39.57603424 14.05593964 39.83052063 13.28184509 C41.34301031 8.74342415 43.05711071 4.37213088 45 0 C49.62 0 54.24 0 59 0 C62.26591489 7.82140832 64.98724933 15.76980521 67.57421875 23.83422852 C68.25716095 25.95978741 68.94859978 28.08246132 69.640625 30.20507812 C70.07863387 31.56233588 70.51615227 32.91975205 70.953125 34.27734375 C71.34661133 35.49671631 71.74009766 36.71608887 72.14550781 37.97241211 C73 41 73 41 73 44 C73.66 44 74.32 44 75 44 C75.11335693 43.02603271 75.22671387 42.05206543 75.34350586 41.04858398 C75.97656478 36.63928953 77.20848775 32.47671208 78.50390625 28.22265625 C78.7466478 27.41130722 78.98938934 26.59995819 79.23948669 25.76402283 C80.0091361 23.19541295 80.78569876 20.62895496 81.5625 18.0625 C82.08835029 16.31198698 82.61374558 14.5613372 83.13867188 12.81054688 C84.41968323 8.5384853 85.71003936 4.26940845 87 0 C92.61 0 98.22 0 104 0 C102.58768748 6.90242256 100.65915 13.49102254 98.4453125 20.17578125 C98.10249237 21.22219284 97.75967224 22.26860443 97.40646362 23.34672546 C96.31664043 26.66997889 95.22089587 29.99124484 94.125 33.3125 C93.39674931 35.53047222 92.6688813 37.74857013 91.94140625 39.96679688 C88.65251531 49.98624514 85.33878632 59.99706282 82 70 C77.05 70 72.1 70 67 70 C63.73408511 62.17859168 61.01275067 54.23019479 58.42578125 46.16577148 C57.74283905 44.04021259 57.05140022 41.91753868 56.359375 39.79492188 C55.92136613 38.43766412 55.48384773 37.08024795 55.046875 35.72265625 C54.65338867 34.50328369 54.25990234 33.28391113 53.85449219 32.02758789 C53 29 53 29 53 26 C52.34 26 51.68 26 51 26 C50.88834503 26.55066635 50.77669006 27.1013327 50.66165161 27.66868591 C49.51292308 33.10692785 48.01768043 38.29347408 46.1796875 43.53515625 C45.91616486 44.29928329 45.65264221 45.06341034 45.38113403 45.85069275 C44.55036362 48.25625285 43.71281809 50.65938662 42.875 53.0625 C42.30553688 54.70752565 41.73652246 56.3527067 41.16796875 57.99804688 C39.78381833 62.00051032 38.39359276 66.00081494 37 70 C32.05 70 27.1 70 22 70 C19.48683249 63.46038087 17.24666893 56.85007973 15.05859375 50.1953125 C14.69024918 49.07615448 14.3219046 47.95699646 13.94239807 46.80392456 C13.16739715 44.44594239 12.39340351 42.08762895 11.62036133 39.72900391 C10.44300453 36.14177149 9.25769684 32.55722714 8.07226562 28.97265625 C7.31721383 26.67203723 6.56264071 24.37126105 5.80859375 22.0703125 C5.45647324 21.00958527 5.10435272 19.94885803 4.74156189 18.85598755 C2.70607112 12.60820092 1.16102919 6.46917579 0 0 Z " fill="#444444" transform="translate(474,71)"/>
<path d="M0 0 C0.33 0 0.66 0 1 0 C1.05850924 3.68743234 1.09376673 7.3747437 1.125 11.0625 C1.14175781 12.10083984 1.15851563 13.13917969 1.17578125 14.20898438 C1.21183286 19.88711284 0.92971166 24.64391054 -1 30 C-1.99 28.515 -1.99 28.515 -3 27 C-3.72703125 27.74443359 -3.72703125 27.74443359 -4.46875 28.50390625 C-5.1390625 29.18324219 -5.809375 29.86257812 -6.5 30.5625 C-7.1496875 31.22378906 -7.799375 31.88507813 -8.46875 32.56640625 C-10.47757491 34.49773019 -12.5108663 36.31058563 -14.625 38.12109375 C-19.84351355 42.65324875 -24.65001133 47.58042756 -29.5 52.5 C-34.88157668 57.95878725 -40.25561063 63.31482299 -46.07910156 68.30175781 C-49.59230212 71.40773431 -52.84235318 74.77910373 -56.125 78.125 C-68.37035501 90.60359987 -68.37035501 90.60359987 -72.3125 91.5625 C-75.51914778 90.89134116 -78.15132409 89.65649662 -81.109375 88.265625 C-84.68234817 86.70124215 -88.31801156 85.40717676 -92 84.125 C-92.72179443 83.87314941 -93.44358887 83.62129883 -94.18725586 83.36181641 C-96.45737476 82.57223144 -98.72866074 81.7860667 -101 81 C-104.10570733 79.92103388 -107.20945782 78.83660302 -110.3125 77.75 C-111.37887695 77.38092529 -111.37887695 77.38092529 -112.46679688 77.00439453 C-117.69691742 75.17385234 -117.69691742 75.17385234 -120.04296875 73.828125 C-123.23536942 72.47724887 -125.56502496 72.59757615 -129 73 C-131.80160944 74.37942927 -134.24609712 76.14339866 -136.75 78 C-143.65540541 83 -143.65540541 83 -147 83 C-147.66 84.32 -148.32 85.64 -149 87 C-152.83247336 85.41507527 -155.33086291 82.96883386 -158.25 80.0625 C-159.14203125 79.18722656 -160.0340625 78.31195313 -160.953125 77.41015625 C-163 75 -163 75 -163 72 C-161.00500397 70.49683659 -159.07115732 69.21628324 -156.9375 67.9375 C-155.6540912 67.14200553 -154.37156954 66.34507836 -153.08984375 65.546875 C-152.41937012 65.13244141 -151.74889648 64.71800781 -151.05810547 64.29101562 C-147.65928412 62.15899103 -144.33078287 59.92378117 -141 57.6875 C-140.39019287 57.27943115 -139.78038574 56.8713623 -139.15209961 56.45092773 C-138.56565674 56.05848877 -137.97921387 55.6660498 -137.375 55.26171875 C-136.80910156 54.88708496 -136.24320313 54.51245117 -135.66015625 54.12646484 C-134.01384626 53.00939509 -132.41254506 51.82691749 -130.8125 50.64453125 C-128 49 -128 49 -126.0703125 49.10546875 C-125.38710937 49.40066406 -124.70390625 49.69585937 -124 50 C-122.35644531 50.52013672 -122.35644531 50.52013672 -120.6796875 51.05078125 C-119.41062919 51.4688456 -118.14243672 51.88954497 -116.875 52.3125 C-116.20194824 52.53687744 -115.52889648 52.76125488 -114.83544922 52.99243164 C-110.41853147 54.48148834 -106.09766088 56.12270529 -101.7890625 57.90234375 C-97.32789875 59.65806786 -92.79699739 61.21865561 -88.25854492 62.76245117 C-84.14531765 64.17567159 -80.3327705 65.79935449 -76.4375 67.75 C-73.70199189 68.86274906 -72.6473968 69.24662735 -69.8671875 68.1875 C-65.51007775 65.13917987 -62.16461131 61.05026384 -58.76953125 56.99609375 C-56.44054204 54.36891166 -53.8424597 52.17987882 -51.16796875 49.9140625 C-47.84442945 46.97976654 -44.77920219 43.80026171 -41.6875 40.625 C-39.60816793 38.59402449 -37.5152766 36.70122612 -35.3125 34.8125 C-30.28952757 30.45862896 -25.66252709 25.73317144 -21 21 C-7.62884927 7.42625608 -7.62884927 7.42625608 -3 4 C-2.34 4 -1.68 4 -1 4 C-0.67 2.68 -0.34 1.36 0 0 Z " fill="#00D8A5" transform="translate(185,80)"/>
<path d="M0 0 C3 1 3 1 4.3515625 3.36328125 C4.98191406 4.82314453 4.98191406 4.82314453 5.625 6.3125 C6.05039063 7.27800781 6.47578125 8.24351563 6.9140625 9.23828125 C7.80666698 11.50832214 8.44123794 13.63709941 9 16 C8.49025635 16.36609375 7.9805127 16.7321875 7.45532227 17.109375 C0.30064822 22.44145991 -5.84009439 28.64495559 -12.0625 35 C-14.13321752 37.10764301 -16.20726981 39.21192423 -18.28515625 41.3125 C-18.78478882 41.81776718 -19.28442139 42.32303436 -19.79919434 42.84361267 C-23.10190052 46.160063 -26.52037056 49.26760352 -30.08081055 52.30126953 C-34.68377978 56.37549163 -38.88796426 60.8947056 -43.171875 65.29882812 C-43.89632812 66.03423828 -44.62078125 66.76964844 -45.3671875 67.52734375 C-46.01800293 68.19499756 -46.66881836 68.86265137 -47.33935547 69.55053711 C-49 71 -49 71 -51 71 C-51 71.66 -51 72.32 -51 73 C-53.01320002 75.48504377 -55.24900438 77.37346077 -58 79 C-63.53236406 79.17846336 -67.45914317 77.52077113 -72.38671875 75.171875 C-76.68302413 73.24528066 -81.14115745 71.77910398 -85.58203125 70.22265625 C-88.46361366 69.19187305 -91.29480345 68.09965801 -94.125 66.9375 C-98.76031269 65.04506655 -103.47521729 63.46862138 -108.23828125 61.9296875 C-110.86979808 61.04383035 -113.43297837 60.05673386 -116 59 C-116 59.66 -116 60.32 -116 61 C-116.52207031 61.27972656 -117.04414062 61.55945313 -117.58203125 61.84765625 C-125.421631 66.11756084 -132.8982104 70.9092142 -140.3125 75.875 C-141.875 76.91666667 -143.4375 77.95833333 -145 79 C-145.556875 79.37511719 -146.11375 79.75023438 -146.6875 80.13671875 C-148.5565516 81.39199281 -150.43382426 82.63418668 -152.3125 83.875 C-152.91167236 84.28089355 -153.51084473 84.68678711 -154.12817383 85.10498047 C-157.4712285 87.29605246 -158.88016528 88 -163 88 C-163.66193086 86.84239068 -164.30354146 85.6731617 -164.9375 84.5 C-165.29714844 83.8503125 -165.65679687 83.200625 -166.02734375 82.53125 C-167.37019916 79.03659014 -167.62843463 75.72347616 -168 72 C-166.97003906 71.33355469 -165.94007813 70.66710937 -164.87890625 69.98046875 C-164.19932861 69.5407373 -163.51975098 69.10100586 -162.81958008 68.64794922 C-161.29469514 67.66126867 -159.76979234 66.67461572 -158.24487305 65.68798828 C-153.63998615 62.70854964 -149.03525975 59.72886603 -144.43237305 56.74633789 C-143.02106645 55.83336897 -141.6084695 54.92239158 -140.19458008 54.01342773 C-136.76582933 51.80703521 -133.36141543 49.5756329 -129.99609375 47.2734375 C-129.36340576 46.84756348 -128.73071777 46.42168945 -128.07885742 45.98291016 C-126.8949785 45.18480729 -125.71871669 44.37523711 -124.55200195 43.55224609 C-122.04363171 41.87693514 -120.49725597 40.97039239 -117.44140625 41.15234375 C-116.63574219 41.43207031 -115.83007812 41.71179688 -115 42 C-114.13761719 42.27457031 -113.27523437 42.54914063 -112.38671875 42.83203125 C-108.11581635 44.38340101 -103.95914062 45.93724276 -99.9375 48.0625 C-96.37925777 49.91679525 -92.82964376 51.00039448 -88.9765625 52.0859375 C-83.21950469 53.85385289 -77.62210573 56.08802824 -71.99902344 58.23828125 C-68.67129618 59.50629652 -65.33529636 60.75204947 -62 62 C-61.61328125 61.12601563 -61.61328125 61.12601563 -61.21875 60.234375 C-59.90165983 57.8197097 -58.44911616 56.18259823 -56.5 54.25 C-55.8915625 53.63640625 -55.283125 53.0228125 -54.65625 52.390625 C-53 51 -53 51 -51 51 C-50.67 50.01 -50.34 49.02 -50 48 C-48.50390625 46.52734375 -48.50390625 46.52734375 -46.5625 44.9375 C-41.41800318 40.57247239 -36.73193809 35.80363413 -32 31 C-26.77887836 25.69977046 -21.55152833 20.518872 -15.90234375 15.67529297 C-12.6215697 12.78608975 -9.56846863 9.67376916 -6.5 6.5625 C-5.86835938 5.92634766 -5.23671875 5.29019531 -4.5859375 4.63476562 C-3.05494226 3.09217194 -1.52712333 1.54642686 0 0 Z " fill="#01FCC4" transform="translate(173,48)"/>
<path d="M0 0 C6.84980009 6.36628479 9.92446658 13.98859288 11.1875 23.1875 C11.51359798 34.23569959 9.15769912 43.03068062 2 51.5 C-5.99657557 59.85052236 -14.74783706 63.17851064 -26.1875 63.5 C-36.93409195 63.28903919 -45.86901105 60.0661037 -53.6015625 52.41796875 C-60.28302257 44.86429838 -63.20924171 37.44691011 -63.125 27.25 C-63.12008545 26.54488281 -63.1151709 25.83976562 -63.11010742 25.11328125 C-62.98759732 19.68514122 -62.29642769 15.98405003 -59.8125 11.1875 C-59.4721875 10.52621094 -59.131875 9.86492187 -58.78125 9.18359375 C-54.36406615 1.31921576 -47.36228563 -4.82379233 -38.8125 -7.8125 C-24.78030313 -11.70921079 -11.41307167 -9.00773614 0 0 Z M-42.8125 13.1875 C-46.25882088 18.41640065 -47.28348011 24.14737376 -46.5625 30.33203125 C-45.08015355 37.25405974 -41.62332859 42.11991998 -35.8125 46.1875 C-31.02584471 49.03085507 -26.22867077 48.78762972 -20.8125 48.1875 C-14.88735124 46.43190037 -11.24265496 43.23184553 -7.8125 38.1875 C-4.99755984 32.28953015 -4.63142615 25.68003169 -6.72265625 19.49609375 C-9.88544326 12.67220281 -13.15577349 8.53471503 -20.375 5.875 C-29.39949158 4.07010168 -36.35587926 6.73087926 -42.8125 13.1875 Z " fill="#454545" transform="translate(452.8125,78.8125)"/>
<path d="M0 0 C0 5.61 0 11.22 0 17 C-1.69125 17.4125 -3.3825 17.825 -5.125 18.25 C-11.20448686 19.93571138 -15.84282252 21.77428788 -19.25 27.3125 C-22.43673509 33.08496312 -23.25733529 39.17941438 -23.4140625 45.68359375 C-23.43342865 46.38396255 -23.4527948 47.08433136 -23.4727478 47.80592346 C-23.53194891 50.01632981 -23.57868725 52.22678995 -23.625 54.4375 C-23.66323476 55.94728681 -23.70228958 57.4570531 -23.7421875 58.96679688 C-23.83912642 62.644417 -23.91916155 66.32185073 -24 70 C-29.61 70 -35.22 70 -41 70 C-41 47.23 -41 24.46 -41 1 C-35.39 1 -29.78 1 -24 1 C-23.67 4.63 -23.34 8.26 -23 12 C-21.4840625 10.14375 -21.4840625 10.14375 -19.9375 8.25 C-13.90186696 1.42816225 -9.13597797 -0.56221403 0 0 Z " fill="#444444" transform="translate(380,70)"/>
<path d="" fill="#000000" transform="translate(0,0)"/>
<path d="" fill="#000000" transform="translate(0,0)"/>
<path d="" fill="#00FF00" transform="translate(0,0)"/>
<path d="" fill="#00FF00" transform="translate(0,0)"/>
<path d="" fill="#00FF00" transform="translate(0,0)"/>
<path d="" fill="#00FF00" transform="translate(0,0)"/>
<path d="" fill="#000000" transform="translate(0,0)"/>
<path d="" fill="#000000" transform="translate(0,0)"/>
<path d="" fill="#0000FF" transform="translate(0,0)"/>
<path d="" fill="#0000FF" transform="translate(0,0)"/>
<path d="" fill="#0000FF" transform="translate(0,0)"/>
<path d="" fill="#0000FF" transform="translate(0,0)"/>
<path d="" fill="#0000FF" transform="translate(0,0)"/>
<path d="" fill="#0000FF" transform="translate(0,0)"/>
<path d="" fill="#0000FF" transform="translate(0,0)"/>
<path d="" fill="#0000FF" transform="translate(0,0)"/>
</svg>
