<?xml version="1.0" encoding="UTF-8"?>
<svg version="1.1" xmlns="http://www.w3.org/2000/svg" width="1781" height="521">
<path d="M0 0 C27.38081214 25.77661951 43.08532791 63.09887179 44.55859375 100.51269531 C45.80376694 143.8820776 35.16507888 183.0897893 5.4375 215.4375 C4.77363281 216.18386719 4.10976563 216.93023437 3.42578125 217.69921875 C-12.63141447 234.87101374 -35.41497774 245.82932079 -57.6875 252.1875 C-58.3789209 252.38633789 -59.0703418 252.58517578 -59.78271484 252.79003906 C-71.71491755 256.02485616 -83.49752783 256.78616828 -95.78979492 256.75317383 C-98.22946476 256.75002649 -100.66790184 256.77352139 -103.10742188 256.79882812 C-135.71520459 256.93080937 -166.01320229 246.49762727 -189.9765625 224.078125 C-192.6581923 221.339784 -195.1088602 218.38186776 -197.5625 215.4375 C-197.8925 265.9275 -198.2225 316.4175 -198.5625 368.4375 C-218.3625 368.4375 -238.1625 368.4375 -258.5625 368.4375 C-258.5625 236.4375 -258.5625 104.4375 -258.5625 -31.5625 C-238.7625 -31.5625 -218.9625 -31.5625 -198.5625 -31.5625 C-198.2325 -20.0125 -197.9025 -8.4625 -197.5625 3.4375 C-195.54125 1.33375 -193.52 -0.77 -191.4375 -2.9375 C-140.63005766 -54.23960718 -51.07790646 -46.44099129 0 0 Z M-174.12109375 45.59375 C-187.99967969 61.75952691 -197.65908034 82.9436405 -198.5625 104.4375 C-198.6140625 105.34886719 -198.665625 106.26023437 -198.71875 107.19921875 C-199.54485553 134.63280661 -189.56823301 158.58935055 -170.875 178.5 C-151.1058079 197.57688576 -125.87126054 204.01849406 -99.06640625 203.71875 C-76.59413894 203.06310398 -57.68961306 193.84291781 -41.5625 178.4375 C-40.94761719 177.89738281 -40.33273437 177.35726562 -39.69921875 176.80078125 C-23.54762461 162.06013096 -15.55697358 137.79171696 -14.5625 116.4375 C-13.8569637 91.29671036 -20.64731707 64.86769627 -38 46 C-39.82129566 44.10773661 -41.68316263 42.27388109 -43.5625 40.4375 C-44.34109375 39.63828125 -45.1196875 38.8390625 -45.921875 38.015625 C-62.02419665 22.34558044 -83.57556865 15.97578929 -105.59375 15.3515625 C-131.89688549 16.11296905 -155.79297777 26.53015585 -174.12109375 45.59375 Z " fill="#402981" transform="translate(706.5625,143.5625)"/>
<path d="M0 0 C1.63252421 1.51275369 3.25756669 3.03362181 4.875 4.5625 C5.68582031 5.30886719 6.49664063 6.05523437 7.33203125 6.82421875 C31.06326827 29.43429497 46.79479293 64.1821189 48.00146484 97.00219727 C48.64342815 129.89157228 48.64342815 129.89157228 44.875 144.5625 C44.58496094 145.73280762 44.58496094 145.73280762 44.2890625 146.92675781 C34.93647753 183.68761263 12.02782273 215.50489252 -20.5 235.25 C-42.20576598 248.06673801 -67.07776156 256.53363676 -92.4453125 256.80078125 C-93.21806015 256.81062042 -93.9908078 256.82045959 -94.78697205 256.83059692 C-111.5624845 257.00020045 -127.82622898 257.04645561 -144.125 252.5625 C-144.9715918 252.3370752 -145.81818359 252.11165039 -146.69042969 251.87939453 C-165.88733673 246.5979145 -184.96664967 237.60296465 -200.125 224.5625 C-200.97707031 223.83546875 -201.82914063 223.1084375 -202.70703125 222.359375 C-205.23013563 220.14245379 -207.68427391 217.86959535 -210.125 215.5625 C-210.93582031 214.81613281 -211.74664063 214.06976563 -212.58203125 213.30078125 C-240.54922103 186.65487603 -252.28440164 149.76695287 -254.3125 112.078125 C-254.99023339 78.69975549 -244.39126515 44.44443363 -223.125 18.5625 C-222.68317383 18.00997559 -222.24134766 17.45745117 -221.78613281 16.88818359 C-210.82611798 3.20913933 -198.26432068 -7.61346242 -183.125 -16.4375 C-182.52574707 -16.78796387 -181.92649414 -17.13842773 -181.30908203 -17.49951172 C-124.92471209 -50.01684711 -48.82935488 -43.08472489 0 0 Z M-168.125 44.5625 C-168.89585938 45.33335937 -169.66671875 46.10421875 -170.4609375 46.8984375 C-188.6228311 66.05210686 -195.02098259 90.16942891 -194.40625 116.03515625 C-193.45176165 139.42409795 -183.55181782 160.10691367 -167.125 176.5625 C-166.44050781 177.25859375 -165.75601562 177.9546875 -165.05078125 178.671875 C-148.03071263 194.90543398 -123.45400321 202.32681645 -100.27783203 202.03271484 C-74.09940313 201.0198106 -51.16330152 190.51676131 -33.125 171.5625 C-16.02659755 151.98857127 -9.48373878 126.07043474 -11.125 100.5625 C-13.12058284 80.91738735 -20.98546155 62.31045652 -34.125 47.5625 C-34.77855469 46.81484375 -35.43210937 46.0671875 -36.10546875 45.296875 C-50.57071319 29.77319804 -72.38624319 19.51904989 -93.59765625 18.4362793 C-122.16023757 17.6271774 -147.40090301 23.83840301 -168.125 44.5625 Z " fill="#402881" transform="translate(1450.125,143.4375)"/>
<path d="M0 0 C-0.58336837 9.67834995 -1.53569696 19.26188153 -2.72949219 28.88061523 C-3.00355083 31.09114057 -3.27166944 33.30233127 -3.5390625 35.51367188 C-4.97128909 47.22457372 -4.97128909 47.22457372 -6 52 C-6.77984253 51.73497681 -6.77984253 51.73497681 -7.57543945 51.46459961 C-47.62325953 37.97180142 -99.88404793 25.71724484 -140.5 44.3125 C-146.50416167 47.57932341 -152.16980206 52.23068634 -154.5625 58.85546875 C-156.03431135 66.06997259 -156.2026352 73.85142211 -152.31640625 80.296875 C-139.24463051 97.2087273 -111.73959875 99.5137729 -92.3125 103.4375 C-79.5825333 106.00879377 -66.89252191 108.57211404 -54.39453125 112.12890625 C-53.15259758 112.48183998 -53.15259758 112.48183998 -51.88557434 112.84190369 C-43.92675614 115.18590941 -36.44913611 118.37072123 -29 122 C-27.99582031 122.48210937 -26.99164062 122.96421875 -25.95703125 123.4609375 C-9.36179059 131.93410692 3.73664067 145.66527731 9.75 163.375 C16.70038909 185.16877653 16.31074769 210.25026149 6 231 C-7.19471385 253.20511182 -27.90589406 265.82714986 -52.5 272.3125 C-61.27614099 274.50442085 -69.9576898 276.3829953 -79 277 C-79.93247559 277.06558105 -80.86495117 277.13116211 -81.82568359 277.19873047 C-124.04811563 279.92381237 -171.86475839 276.97560275 -210 257 C-209.41362827 247.19140117 -208.21992582 237.52677697 -206.84326172 227.80322266 C-206.49572788 225.34477914 -206.15567766 222.88537726 -205.81640625 220.42578125 C-205.59678941 218.85410579 -205.37675319 217.28248885 -205.15625 215.7109375 C-205.05517944 214.97974701 -204.95410889 214.24855652 -204.84997559 213.49520874 C-204.4284989 210.54070628 -203.94631784 207.83895353 -203 205 C-198.40067831 206.52273438 -193.80808766 208.06152961 -189.23046875 209.6484375 C-150.07846807 223.13270709 -99.82053425 234.1261091 -59.84765625 217.43359375 C-52.60798781 213.78893214 -48.25748454 209.33497694 -45.62109375 201.61328125 C-43.8618465 194.21116544 -44.64512104 187.78332983 -48 181 C-48.495 179.989375 -48.99 178.97875 -49.5 177.9375 C-64.08009283 160.80589093 -93.1954235 158.55698613 -113.84489441 154.42723083 C-117.6228705 153.66936427 -121.39862916 152.90071744 -125.17440796 152.13198853 C-127.9171445 151.57919925 -130.662959 151.04439992 -133.40942383 150.51049805 C-159.11812041 145.37999427 -184.70504164 135.69725086 -201 114 C-212.91660849 95.79538915 -217.27090124 73.038187 -213.31640625 51.578125 C-210.17863306 39.02703225 -204.58873287 28.62256183 -196 19 C-195.34515625 18.25105469 -194.6903125 17.50210938 -194.015625 16.73046875 C-174.83319216 -3.85819506 -146.09929033 -12.5171931 -119 -16 C-118.02804687 -16.13148437 -117.05609375 -16.26296875 -116.0546875 -16.3984375 C-77.42892896 -20.56506451 -35.95333861 -14.43092625 0 0 Z " fill="#402881" transform="translate(976,123)"/>
<path d="M0 0 C8.62318227 -0.41991792 17.24200246 -0.73821221 25.87292671 -0.93261909 C29.88269698 -1.02601284 33.88540933 -1.15219904 37.89111328 -1.35791016 C63.66857702 -2.64750044 63.66857702 -2.64750044 70.79766846 1.71002197 C75.22549648 5.75812601 78.17246288 10.41982583 80.83590698 15.75596619 C82.59771884 19.15222861 84.83166353 22.06620335 87.125 25.125 C87.92809921 26.25655402 88.72802215 27.3903753 89.5234375 28.52734375 C92.19522325 32.30073063 94.96669707 35.99594704 97.75 39.6875 C103.95960458 47.92655089 110.08041433 56.22915084 116.19140625 64.54150391 C118.03193585 67.04341172 119.87493638 69.54348032 121.71875 72.04296875 C122.32702637 72.86772705 122.93530273 73.69248535 123.56201172 74.54223633 C124.75598198 76.16083296 125.95030887 77.77916659 127.14501953 79.3972168 C129.64412988 82.78549559 132.13656457 86.17710216 134.5859375 89.6015625 C135.30007813 90.59929687 136.01421875 91.59703125 136.75 92.625 C137.34296875 93.46289062 137.9359375 94.30078125 138.546875 95.1640625 C139.88225247 97.11770284 139.88225247 97.11770284 142 98 C142.23976563 97.46890625 142.47953125 96.9378125 142.7265625 96.390625 C144.35959431 93.32493338 146.34415114 90.55881412 148.375 87.75 C148.81489258 87.13793701 149.25478516 86.52587402 149.70800781 85.89526367 C153.49381435 80.65097981 157.36752346 75.4743669 161.25976562 70.30883789 C165.16410684 65.12546707 169.02877945 59.91412734 172.875 54.6875 C173.46063721 53.89182617 174.04627441 53.09615234 174.6496582 52.27636719 C177.01515839 49.06107393 179.37934329 45.84481656 181.74267578 42.62792969 C183.47353828 40.27223706 185.20521988 37.91715036 186.9375 35.5625 C187.50500977 34.79099609 188.07251953 34.01949219 188.65722656 33.22460938 C193.73253889 26.3377044 198.86712357 19.49579173 204.02709961 12.67211914 C204.61885986 11.88699951 205.21062012 11.10187988 205.8203125 10.29296875 C206.33867676 9.6074292 206.85704102 8.92188965 207.39111328 8.21557617 C209.12748826 5.92651531 209.12748826 5.92651531 210.67630005 2.90409851 C213 0 213 0 216.1005249 -0.7215271 C217.31742004 -0.70820343 218.53431519 -0.69487976 219.78808594 -0.68115234 C220.46166641 -0.6820285 221.13524689 -0.68290466 221.82923889 -0.68380737 C224.0488105 -0.67963724 226.26533377 -0.63302452 228.484375 -0.5859375 C230.02563831 -0.57474302 231.56692302 -0.56620402 233.10821533 -0.56021118 C237.15955843 -0.53733181 241.20960518 -0.47841891 245.26043701 -0.4119873 C249.39610252 -0.35054394 253.5319781 -0.32319195 257.66796875 -0.29296875 C265.77923992 -0.22867247 273.88945858 -0.12630655 282 0 C280.60706432 2.84907732 279.11811272 5.35898609 277.234375 7.9140625 C276.68136719 8.66558594 276.12835937 9.41710937 275.55859375 10.19140625 C274.96175781 10.99449219 274.36492187 11.79757813 273.75 12.625 C272.81607422 13.88763672 272.81607422 13.88763672 271.86328125 15.17578125 C267.08886678 21.60250817 262.19419664 27.92824738 257.25292969 34.22705078 C253.06734038 39.57970831 249.00921054 45.0142716 245 50.5 C239.75446061 57.67643989 234.37217564 64.72908042 228.89404297 71.72924805 C225.04703809 76.64606913 221.26818801 81.606197 217.5390625 86.61328125 C214.0614997 91.26901079 210.52522322 95.88033813 207 100.5 C197.53792392 112.90776548 188.20743373 125.40216544 179 138 C181.98758793 143.57342199 185.49399018 148.38066504 189.4375 153.3125 C194.22764478 159.38297437 198.88525288 165.51660539 203.375 171.8125 C208.18872203 178.55661673 213.14457013 185.1755704 218.1875 191.75 C222.95463093 197.96583329 227.63761952 204.21346779 232.14013672 210.62304688 C235.89738701 215.93432688 239.85371709 221.08798476 243.8125 226.25 C248.80847323 232.76527105 253.72621108 239.32013797 258.5 246 C265.26036482 255.45788189 272.31437527 264.68585499 279.39697266 273.90380859 C279.92597168 274.59555176 280.4549707 275.28729492 281 276 C281.56380371 276.68787598 282.12760742 277.37575195 282.70849609 278.08447266 C284 280 284 280 284 283 C275.37694705 283.44324005 266.75875138 283.77920608 258.12707329 283.98443127 C254.11688055 284.08302394 250.11454935 284.21621234 246.10888672 284.43334961 C220.34691543 285.79358409 220.34691543 285.79358409 213.21743774 281.21176147 C208.76195482 276.91710929 205.88143205 272.00334248 203.23931885 266.45230103 C201.23130326 262.47894203 198.57967698 259.00570532 195.9375 255.4375 C194.95216145 254.04157402 193.96996011 252.64342343 192.9921875 251.2421875 C188.27543132 244.53550123 183.4517573 237.90557356 178.64111328 231.26611328 C175.92351831 227.51355206 173.21202514 223.7565875 170.5 220 C167.21611457 215.45220514 163.93154952 210.90490621 160.64453125 206.359375 C154.0664698 197.26073003 147.51332016 188.14511318 141 179 C134.9999502 186.63280671 129.24375228 194.39827032 123.67260742 202.34960938 C120.01020292 207.57580891 116.30424562 212.76781302 112.5625 217.9375 C112.02262451 218.68346436 111.48274902 219.42942871 110.92651367 220.19799805 C109.83161956 221.71013427 108.73648578 223.22209699 107.64111328 224.73388672 C104.92351827 228.486448 102.21205527 232.24343419 99.5 236 C98.41669638 237.50002146 97.33336304 239.00002146 96.25 240.5 C95.71375 241.2425 95.1775 241.985 94.625 242.75 C89.75 249.5 89.75 249.5 88.12207031 251.75390625 C87.04831209 253.24074785 85.97474164 254.72772508 84.90136719 256.21484375 C82.04812979 260.16735034 79.19083476 264.11684734 76.328125 268.0625 C75.4299707 269.30193359 75.4299707 269.30193359 74.51367188 270.56640625 C73.35991307 272.15841453 72.20501074 273.74959487 71.04882812 275.33984375 C70.53255859 276.05269531 70.01628906 276.76554687 69.484375 277.5 C69.02772461 278.1290625 68.57107422 278.758125 68.10058594 279.40625 C66.93259278 281.01793675 66.93259278 281.01793675 66 283 C43.23 283 20.46 283 -3 283 C2.64061235 271.7187753 11.4660345 261.71946642 19.11376953 251.74243164 C22.82891351 246.88527672 26.48595671 242.00448235 30 237 C34.84606537 230.09853449 39.98717466 223.43001386 45.1171875 216.73828125 C48.83096316 211.8823444 52.4869883 207.00301322 56 202 C60.84606537 195.09853449 65.98717466 188.43001386 71.1171875 181.73828125 C74.83096054 176.88234782 78.48707472 172.00307328 82 167 C88.7214357 157.4606428 95.89260042 148.25312961 103 139 C99.41709723 133.47088695 95.69417998 128.20349504 91.5 123.125 C86.87050491 117.43126156 82.44989784 111.61550942 78.125 105.6875 C73.51776367 99.37477348 68.82546415 93.14757383 64 87 C58.61139925 80.13227872 53.40054229 73.15297416 48.25 66.10546875 C44.25873194 60.66202057 40.16641858 55.31032368 36 50 C30.62059234 43.14365676 25.41186196 36.18060427 20.27856445 29.13842773 C15.46415386 22.55934552 10.4668605 16.13463455 5.35351562 9.78515625 C4.79728516 9.08390625 4.24105469 8.38265625 3.66796875 7.66015625 C3.17578857 7.04793213 2.6836084 6.43570801 2.17651367 5.80493164 C0.91085982 3.86324687 0.50680543 2.24269882 0 0 Z " fill="#412981" transform="translate(1479,112)"/>
<path d="M0 0 C19.8 0 39.6 0 60 0 C60 93.39 60 186.78 60 283 C40.2 283 20.4 283 0 283 C-0.33 272.44 -0.66 261.88 -1 251 C-3.97 254.3 -6.94 257.6 -10 261 C-22.08668185 271.61668001 -35.58807936 279.39099353 -51 284 C-51.68465332 284.21027832 -52.36930664 284.42055664 -53.07470703 284.63720703 C-64.9577134 288.09931477 -76.90554809 288.38979267 -89.1875 288.4375 C-90.31919617 288.44689606 -90.31919617 288.44689606 -91.47375488 288.45648193 C-122.87522886 288.62117796 -153.20843764 279.14307327 -176.25 257.25 C-199.48163331 232.76157341 -206.82317527 201.29088435 -207.80136108 168.3923645 C-207.84993426 166.97923323 -207.91662708 165.56659299 -208.00259399 164.15524292 C-208.64442976 152.97193239 -208.64442976 152.97193239 -204.67822266 148.21582031 C-201.8852562 145.92891132 -199.03735384 143.94601491 -196 142 C-194.94847466 141.13650733 -193.91281606 140.2521469 -192.9140625 139.328125 C-192.15867188 138.64234375 -191.40328125 137.9565625 -190.625 137.25 C-187.32662141 134.24676675 -184.11477473 131.19464075 -181 128 C-180.39285156 127.44957031 -179.78570312 126.89914063 -179.16015625 126.33203125 C-167.93582809 115.83840077 -159.4703337 102.5019525 -152.07055664 89.13085938 C-151.09694052 87.39168074 -150.05521593 85.69091396 -149 84 C-148.34 84 -147.68 84 -147 84 C-146.99453156 85.63466469 -146.99453156 85.63466469 -146.98895264 87.30235291 C-146.95178712 97.64268073 -146.89378266 107.98271666 -146.81609726 118.32282162 C-146.7768218 123.63701941 -146.74453655 128.95105643 -146.72900391 134.26538086 C-146.7137048 139.40736978 -146.67902892 144.54891609 -146.63169098 149.69070625 C-146.61701244 151.63875004 -146.60896689 153.58685707 -146.60811615 155.53495598 C-146.5948962 170.64745507 -145.61376297 185.91873782 -138.25 199.5 C-137.90565918 200.15669678 -137.56131836 200.81339355 -137.20654297 201.48999023 C-129.83452601 215.04893639 -118.41771508 223.01767568 -104 228 C-103.08476562 228.32097656 -102.16953125 228.64195312 -101.2265625 228.97265625 C-78.64249299 235.48146985 -53.04071581 230.91039493 -32.8125 219.75 C-17.00499799 210.036706 -7.31224734 195.91600618 -2.47872353 178.07602882 C-0.56986376 169.8550028 -0.69187032 161.6439437 -0.68115234 153.25927734 C-0.67183994 151.58294193 -0.66166934 149.9066111 -0.65071106 148.23028564 C-0.62354482 143.70623838 -0.60830156 139.18222203 -0.59528303 134.65811491 C-0.57959362 129.92020363 -0.55282207 125.18235492 -0.5272522 120.44448853 C-0.48056691 111.48460547 -0.44377334 102.52471052 -0.41057932 93.56476843 C-0.3722853 83.35912963 -0.32289432 73.15355384 -0.27259517 62.94796824 C-0.16942782 41.965353 -0.08158285 20.98271103 0 0 Z " fill="#412981" transform="translate(355,112)"/>
<path d="M0 0 C19.14 0 38.28 0 58 0 C58 29.7 58 59.4 58 90 C85.72 90 113.44 90 142 90 C142 106.5 142 123 142 140 C114.61 140 87.22 140 59 140 C59.09066215 166.18953314 59.09066215 166.18953314 59.20898438 192.37890625 C59.2633992 203.06427444 59.31481527 213.74959538 59.34643555 224.43505859 C59.36948211 232.2184563 59.40295393 240.00172917 59.44870156 247.78502774 C59.4725444 251.90238596 59.49133151 256.01962125 59.49761391 260.13704681 C59.50370553 264.02113913 59.52385042 267.90491725 59.55427551 271.78889275 C59.56299096 273.20610552 59.56679197 274.62335947 59.56500816 276.04059792 C59.55333384 289.60890615 61.13886978 302.43764221 70.6640625 312.8125 C82.26526063 323.40720149 97.30454683 324.85648645 112.34814453 324.17724609 C125.37024076 323.30686846 138.32164054 321.05059502 151 318 C152.498272 323.68582283 153.63794621 329.32899181 154.54296875 335.13671875 C154.6756868 335.97918655 154.80840485 336.82165436 154.94514465 337.68965149 C155.2218566 339.45660765 155.49654441 341.22388189 155.76928711 342.99145508 C156.18816023 345.69175621 156.62023675 348.38974254 157.05273438 351.08789062 C157.32112387 352.81237392 157.5887294 354.53697945 157.85546875 356.26171875 C157.9855986 357.06389328 158.11572845 357.86606781 158.24980164 358.69255066 C158.85910723 362.73483434 159.17129841 365.99577053 158 370 C120.61955106 380.80828981 76.03665274 385.46066502 40.59765625 366.109375 C35.41706188 363.13962501 30.60790902 359.79841149 26 356 C25.38125 355.4946875 24.7625 354.989375 24.125 354.46875 C8.88992786 340.64433269 1.10426432 319.12920159 -0.27182579 299.02963448 C-0.40052235 294.79764381 -0.3724173 290.5674983 -0.34057617 286.33422852 C-0.33972743 284.72612524 -0.34020986 283.11802082 -0.34190369 281.50991821 C-0.34275542 277.19472336 -0.32526484 272.87978478 -0.30418181 268.56464887 C-0.28527603 264.03635324 -0.28365372 259.50805008 -0.28010559 254.97972107 C-0.27082559 246.42720858 -0.24626729 237.87481278 -0.21605712 229.3223514 C-0.18238627 219.57613536 -0.16599538 209.8299134 -0.15097082 200.08365357 C-0.11971355 180.05568969 -0.06475283 160.02788552 0 140 C-16.83 140 -33.66 140 -51 140 C-51 123.5 -51 107 -51 90 C-34.17 90 -17.34 90 0 90 C0 60.3 0 30.6 0 0 Z " fill="#3F2780" transform="translate(1047,22)"/>
<path d="M0 0 C19.14 0 38.28 0 58 0 C58 22.15283109 58 22.15283109 56.375 30.9375 C56.19678711 31.94055176 56.01857422 32.94360352 55.83496094 33.97705078 C52.73982213 50.54468467 47.38431664 65.8797326 40 81 C39.65066406 81.72316406 39.30132812 82.44632812 38.94140625 83.19140625 C18.04866572 125.97177971 -21.08723156 158.51110589 -65.68432617 174.35058594 C-86.65647918 181.42982505 -106.84874214 184 -129 184 C-129 165.19 -129 146.38 -129 127 C-120.75 126.01 -112.5 125.02 -104 124 C-69.29705832 115.37328004 -37.96036753 97.4057189 -19 66 C-6.78090155 44.749394 -2.4582067 24.58206695 0 0 Z " fill="#412981" transform="translate(149,112)"/>
<path d="M0 0 C0.66 0.33 1.32 0.66 2 1 C-3.94 6.94 -9.88 12.88 -16 19 C-16.66 18.67 -17.32 18.34 -18 18 C-12.31481712 11.5575694 -6.66474693 5.45466718 0 0 Z " fill="#7D6DA9" transform="translate(1248,140)"/>
</svg>
