<?xml version="1.0" encoding="UTF-8"?>
<svg version="1.1" xmlns="http://www.w3.org/2000/svg" width="320" height="320">
<path d="M0 0 C8.5707807 4.78244189 12.87342638 13.43199233 15.5 22.625 C15.82725625 25.73393435 15.75 28.87388909 15.75 32 C4.53 32 -6.69 32 -18.25 32 C-18.25 21.11 -18.25 10.22 -18.25 -1 C-11.96947278 -3.09350907 -6.03309596 -2.71991316 0 0 Z " fill="#397DCF" transform="translate(33.25,146)"/>
<path d="M0 0 C4.72434636 5.15383239 5.62899257 9.73172798 5.40625 16.5625 C4.69385619 22.13212437 2.45799282 25.11616208 -1.9375 28.6875 C-6.95882238 31.1927386 -12.48839401 31.00029415 -17.9375 30.25 C-22.41620656 28.09062362 -25.11948188 25.32047061 -27.9375 21.25 C-29.65987197 16.0828841 -29.59311622 11.14400242 -27.8125 6 C-24.80067282 1.58265347 -21.57220383 -1.02695792 -16.6875 -3.1875 C-10.60292549 -4.10018618 -5.29929667 -3.1570278 0 0 Z M-20.9375 8.25 C-22.70575051 11.78650103 -21.97684815 15.52887698 -20.9375 19.25 C-19.13780866 21.8142661 -17.7564247 22.60119499 -14.9375 24.25 C-11.28535761 24.84626815 -9.51990402 24.52796555 -6.1875 22.9375 C-3.61190915 21.00580686 -2.12487439 19.41346422 -1.6015625 16.1640625 C-1.53110631 12.03532948 -1.5700943 9.83784911 -3.8125 6.25 C-7.05916803 3.19431244 -9.42384347 2.8580825 -13.8984375 2.890625 C-17.31756698 3.4932302 -18.86939052 5.61786067 -20.9375 8.25 Z " fill="#397DCD" transform="translate(192.9375,146.75)"/>
<path d="M0 0 C18.84135754 -0.58879242 18.84135754 -0.58879242 25 4 C29.06789313 8.48511293 30.25941735 13.05415441 30 19 C28.43180821 24.22730596 26.23150042 27.55575547 22 31 C16 33 16 33 0 33 C0 22.11 0 11.22 0 0 Z M7 6 C7 12.93 7 19.86 7 27 C14.19095817 27.10168076 14.19095817 27.10168076 20 24 C22.04231601 21.69415934 22.94559305 20.13801202 23.09375 17.0390625 C22.82678226 13.44834639 22.35195009 11.45753512 20.125 8.5625 C15.59297287 5.23012711 13.13435998 6 7 6 Z " fill="#3A7CCC" transform="translate(204,144)"/>
<path d="M0 0 C3.031875 -0.061875 6.06375 -0.12375 9.1875 -0.1875 C10.60712036 -0.22846802 10.60712036 -0.22846802 12.05541992 -0.27026367 C16.87092453 -0.31780023 20.10324458 -0.15994202 24 3 C26.5940636 6.02640753 27.23362622 8.17674616 26.9375 12.0625 C26.30545917 15.77749556 25.11363653 17.73553707 22 20 C21.34 20 20.68 20 20 20 C20.5775 20.77085937 21.155 21.54171875 21.75 22.3359375 C22.4925 23.33882812 23.235 24.34171875 24 25.375 C25.11375 26.87160156 25.11375 26.87160156 26.25 28.3984375 C28 31 28 31 28 33 C22.96741331 33.88290995 22.96741331 33.88290995 20 33 C17.95481479 30.56917605 16.39939161 28.00024459 14.7421875 25.29296875 C13.21861263 22.90578605 13.21861263 22.90578605 11.0078125 22.11328125 C8.88181823 21.79956999 8.88181823 21.79956999 6 22 C6 25.63 6 29.26 6 33 C4.02 33 2.04 33 0 33 C0 22.11 0 11.22 0 0 Z M6 6 C6 9.3 6 12.6 6 16 C7.5675 16.061875 9.135 16.12375 10.75 16.1875 C11.63171875 16.22230469 12.5134375 16.25710937 13.421875 16.29296875 C16.44671583 15.94923684 17.75583602 14.99772541 20 13 C19.42547254 9.06924356 19.42547254 9.06924356 17 6 C14.33050591 5.75684344 14.33050591 5.75684344 11.375 5.875 C10.37210938 5.89304688 9.36921875 5.91109375 8.3359375 5.9296875 C7.17964844 5.96449219 7.17964844 5.96449219 6 6 Z " fill="#3A7CCD" transform="translate(133,144)"/>
<path d="M0 0 C2.31 0 4.62 0 7 0 C7 4.29 7 8.58 7 13 C11.62 13 16.24 13 21 13 C21 8.71 21 4.42 21 0 C23.31 0 25.62 0 28 0 C28 10.89 28 21.78 28 33 C25.69 33 23.38 33 21 33 C21 28.38 21 23.76 21 19 C16.38 19 11.76 19 7 19 C7 23.62 7 28.24 7 33 C4.69 33 2.38 33 0 33 C0 22.11 0 11.22 0 0 Z " fill="#397DCE" transform="translate(239,144)"/>
<path d="M0 0 C8.25 0 16.5 0 25 0 C25 1.98 25 3.96 25 6 C19.06 6 13.12 6 7 6 C7 8.31 7 10.62 7 13 C12.28 13 17.56 13 23 13 C23 14.98 23 16.96 23 19 C17.72 19 12.44 19 7 19 C7 21.64 7 24.28 7 27 C12.94 27 18.88 27 25 27 C25 28.98 25 30.96 25 33 C16.75 33 8.5 33 0 33 C0 22.11 0 11.22 0 0 Z " fill="#3A7CCD" transform="translate(102,144)"/>
<path d="M0 0 C1.134375 0.020625 2.26875 0.04125 3.4375 0.0625 C5.29590466 4.27698765 7.14710811 8.49453601 8.99169922 12.71508789 C9.62026014 14.15052374 10.25078278 15.58510224 10.88330078 17.01879883 C11.79195572 19.0793201 12.69351894 21.14281826 13.59375 23.20703125 C13.87810913 23.84776077 14.16246826 24.4884903 14.45544434 25.14863586 C15.68069796 27.9750775 16.4375 29.94442037 16.4375 33.0625 C14.1275 33.0625 11.8175 33.0625 9.4375 33.0625 C7.9525 29.5975 7.9525 29.5975 6.4375 26.0625 C1.8175 26.0625 -2.8025 26.0625 -7.5625 26.0625 C-8.5525 28.3725 -9.5425 30.6825 -10.5625 33.0625 C-12.8725 33.0625 -15.1825 33.0625 -17.5625 33.0625 C-15.29267099 25.84714951 -12.48131005 18.98343985 -9.4375 12.0625 C-8.98246094 11.01449219 -8.52742188 9.96648437 -8.05859375 8.88671875 C-4.20651316 0.07379848 -4.20651316 0.07379848 0 0 Z M-1.5625 10.0625 C-2.5525 13.0325 -3.5425 16.0025 -4.5625 19.0625 C-1.9225 19.0625 0.7175 19.0625 3.4375 19.0625 C2.4475 16.0925 1.4575 13.1225 0.4375 10.0625 C-0.2225 10.0625 -0.8825 10.0625 -1.5625 10.0625 Z " fill="#397CCE" transform="translate(288.5625,143.9375)"/>
<path d="M0 0 C8.58 0 17.16 0 26 0 C26 6.39481653 25.8623376 6.88968634 21.9375 11.3125 C21.1228125 12.25351563 20.308125 13.19453125 19.46875 14.1640625 C18.6540625 15.09992188 17.839375 16.03578125 17 17 C15.63281321 18.71889063 14.27714543 20.44705901 12.9375 22.1875 C11.968125 23.445625 10.99875 24.70375 10 26 C15.28 26.33 20.56 26.66 26 27 C26 28.98 26 30.96 26 33 C17.42 33 8.84 33 0 33 C0 26 0 26 1.72265625 23.4453125 C2.49480469 22.67960937 3.26695313 21.91390625 4.0625 21.125 C8.41719943 16.63249362 12.22092048 11.98516873 16 7 C10.72 6.67 5.44 6.34 0 6 C0 4.02 0 2.04 0 0 Z " fill="#3A7CCC" transform="translate(70,144)"/>
<path d="M0 0 C5.61 0 11.22 0 17 0 C17 6.27 17 12.54 17 19 C16.34 19 15.68 19 15 19 C14.443125 17.80375 13.88625 16.6075 13.3125 15.375 C10.05471936 8.90516195 6.11550605 4.83996892 0 1 C0 0.67 0 0.34 0 0 Z " fill="#3B7CCC" transform="translate(34,142)"/>
</svg>
